<svg xmlns="http://www.w3.org/2000/svg" xmlns:xlink="http://www.w3.org/1999/xlink" width="1080" zoomAndPan="magnify" viewBox="0 0 810 809.999993" height="1080" preserveAspectRatio="xMidYMid meet" version="1.0"><defs><clipPath id="id1"><path d="M 233 629 L 625 629 L 625 655.230469 L 233 655.230469 Z M 233 629 " clip-rule="nonzero"/></clipPath></defs><path fill="rgb(94.898987%, 67.059326%, 78.039551%)" d="M 205.585938 532.84375 L 157.929688 466.722656 C 151.179688 475.863281 148.902344 488.550781 152.089844 499.710938 C 155.882812 512.980469 165.683594 518.089844 167.269531 518.875 C 159.289062 519.472656 151.304688 520.074219 143.324219 520.671875 C 111.773438 523.039062 86.730469 554.226562 85.21875 593.042969 L 83.792969 629.617188 L 196.828125 629.617188 L 205.585938 532.84375 " fill-opacity="1" fill-rule="nonzero"/><path fill="rgb(24.708557%, 39.99939%, 72.938538%)" d="M 208.730469 473.023438 L 194.558594 629.617188 L 260.765625 629.617188 Z M 208.730469 473.023438 " fill-opacity="1" fill-rule="nonzero"/><path fill="rgb(95.289612%, 79.219055%, 40.388489%)" d="M 552.722656 236.664062 L 433.761719 174.566406 C 430.789062 173.011719 429.386719 168.75 430.652344 165.085938 L 431.53125 162.523438 C 432.796875 158.863281 436.269531 157.140625 439.246094 158.695312 L 558.207031 220.789062 C 561.179688 222.34375 562.582031 226.613281 561.316406 230.273438 L 560.433594 232.832031 C 559.171875 236.492188 555.699219 238.21875 552.722656 236.664062 " fill-opacity="1" fill-rule="nonzero"/><path fill="rgb(95.289612%, 79.219055%, 40.388489%)" d="M 547.949219 179.882812 L 513.667969 161.988281 C 500.242188 154.980469 484.601562 162.75 478.902344 179.246094 L 476.964844 184.863281 C 474.996094 190.574219 477.179688 197.226562 481.824219 199.648438 L 551.222656 235.878906 C 555.027344 237.863281 559.453125 235.660156 561.070312 230.988281 L 562.953125 225.546875 C 569.039062 207.917969 562.289062 187.367188 547.949219 179.882812 " fill-opacity="1" fill-rule="nonzero"/><path fill="rgb(24.708557%, 39.99939%, 72.938538%)" d="M 634.078125 610.085938 L 690.066406 395.210938 C 696.691406 369.78125 684.238281 342.785156 663.28125 337.148438 L 409.046875 268.773438 C 392.9375 264.4375 376.519531 274.234375 369.109375 292.589844 L 264.667969 551.316406 C 253.011719 580.199219 268.769531 614.546875 294.636719 616.644531 L 597.332031 641.167969 C 613.835938 642.507812 628.96875 629.710938 634.078125 610.085938 " fill-opacity="1" fill-rule="nonzero"/><path fill="rgb(94.898987%, 67.059326%, 78.039551%)" d="M 462.714844 230.898438 C 453.269531 263.289062 466.972656 298.957031 493.320312 310.566406 C 519.664062 322.179688 548.675781 305.332031 558.125 272.941406 C 567.566406 240.550781 553.863281 204.878906 527.515625 193.273438 C 501.167969 181.660156 472.15625 198.503906 462.714844 230.898438 " fill-opacity="1" fill-rule="nonzero"/><path fill="rgb(94.898987%, 67.059326%, 78.039551%)" d="M 547.039062 251.597656 C 542.316406 267.792969 549.171875 285.628906 562.34375 291.429688 C 575.515625 297.234375 590.023438 288.8125 594.746094 272.617188 C 599.46875 256.421875 592.617188 238.589844 579.441406 232.785156 C 566.273438 226.980469 551.761719 235.402344 547.039062 251.597656 " fill-opacity="1" fill-rule="nonzero"/><path fill="rgb(94.509888%, 28.239441%, 36.859131%)" d="M 584.738281 250.050781 C 573.972656 255.695312 563.207031 261.335938 552.4375 266.980469 C 551.566406 267.433594 552.320312 268.988281 553.179688 268.539062 C 563.945312 262.898438 574.710938 257.253906 585.480469 251.613281 C 586.351562 251.15625 585.597656 249.601562 584.738281 250.050781 " fill-opacity="1" fill-rule="nonzero"/><path fill="rgb(94.509888%, 28.239441%, 36.859131%)" d="M 566.800781 260.589844 C 568.558594 267.640625 570.320312 274.699219 572.078125 281.753906 C 572.355469 282.863281 573.769531 282.386719 573.492188 281.269531 C 571.738281 274.21875 569.976562 267.164062 568.21875 260.109375 C 567.945312 259 566.523438 259.472656 566.800781 260.589844 " fill-opacity="1" fill-rule="nonzero"/><path fill="rgb(94.509888%, 28.239441%, 36.859131%)" d="M 503.832031 228.21875 C 499.976562 243.136719 496.113281 258.050781 492.257812 272.96875 C 492.070312 273.6875 492.644531 274.183594 493.160156 274.082031 C 498.074219 273.109375 502.992188 272.144531 507.90625 271.175781 C 508.835938 270.988281 508.445312 269.25 507.515625 269.433594 C 502.601562 270.398438 497.6875 271.367188 492.769531 272.335938 C 493.070312 272.710938 493.375 273.078125 493.675781 273.449219 C 497.535156 258.53125 501.394531 243.613281 505.25 228.699219 C 505.539062 227.585938 504.121094 227.109375 503.832031 228.21875 " fill-opacity="1" fill-rule="nonzero"/><path fill="rgb(6.269836%, 6.269836%, 12.159729%)" d="M 519.164062 237.753906 C 518.96875 242.839844 519.328125 247.847656 520.195312 252.824219 C 520.59375 255.097656 523.425781 254.136719 523.03125 251.863281 C 522.214844 247.191406 521.921875 242.519531 522.105469 237.753906 C 522.191406 235.425781 519.253906 235.429688 519.164062 237.753906 " fill-opacity="1" fill-rule="nonzero"/><path fill="rgb(6.269836%, 6.269836%, 12.159729%)" d="M 483.386719 237.753906 C 483.1875 242.839844 483.546875 247.847656 484.417969 252.824219 C 484.8125 255.097656 487.648438 254.136719 487.253906 251.863281 C 486.4375 247.191406 486.140625 242.519531 486.324219 237.753906 C 486.414062 235.425781 483.476562 235.429688 483.386719 237.753906 " fill-opacity="1" fill-rule="nonzero"/><g clip-path="url(#id1)"><path fill="rgb(6.269836%, 6.269836%, 12.159729%)" d="M 239.328125 655.238281 L 618.910156 655.238281 C 622.144531 655.238281 624.792969 651.988281 624.792969 648.007812 L 624.792969 636.851562 C 624.792969 632.875 622.144531 629.617188 618.910156 629.617188 L 239.328125 629.617188 C 236.09375 629.617188 233.449219 632.875 233.449219 636.851562 L 233.449219 648.007812 C 233.449219 651.988281 236.09375 655.238281 239.328125 655.238281 " fill-opacity="1" fill-rule="nonzero"/></g><path fill="rgb(6.269836%, 6.269836%, 12.159729%)" d="M 245.066406 629.617188 L 492.839844 629.617188 C 497.9375 629.617188 501.21875 624.492188 500.136719 618.230469 L 453.046875 345.886719 C 451.964844 339.625 446.910156 334.496094 441.816406 334.496094 L 194.042969 334.496094 C 188.949219 334.496094 185.664062 339.625 186.746094 345.886719 L 233.835938 618.230469 C 234.917969 624.492188 239.972656 629.617188 245.066406 629.617188 " fill-opacity="1" fill-rule="nonzero"/><path fill="rgb(95.289612%, 86.669922%, 89.019775%)" d="M 252.394531 615.53125 L 481.714844 615.53125 C 486.429688 615.53125 489.46875 610.785156 488.460938 604.992188 L 444.882812 352.933594 C 443.878906 347.132812 439.203125 342.394531 434.488281 342.394531 L 205.171875 342.394531 C 200.457031 342.394531 197.417969 347.132812 198.421875 352.933594 L 242 604.992188 C 243.003906 610.785156 247.679688 615.53125 252.394531 615.53125 " fill-opacity="1" fill-rule="nonzero"/><path fill="rgb(95.289612%, 79.219055%, 40.388489%)" d="M 314.246094 524.359375 L 454.082031 524.359375 C 456.957031 524.359375 458.808594 521.464844 458.195312 517.933594 L 431.625 364.234375 C 431.011719 360.699219 428.164062 357.804688 425.285156 357.804688 L 285.453125 357.804688 C 282.578125 357.804688 280.726562 360.699219 281.335938 364.234375 L 307.910156 517.933594 C 308.523438 521.464844 311.371094 524.359375 314.246094 524.359375 " fill-opacity="1" fill-rule="nonzero"/><path fill="rgb(100%, 100%, 100%)" d="M 487.761719 484.039062 L 533.800781 484.039062 C 534.746094 484.039062 535.355469 483.085938 535.15625 481.921875 L 526.40625 431.320312 C 526.203125 430.160156 525.265625 429.210938 524.320312 429.210938 L 478.285156 429.210938 C 477.335938 429.210938 476.730469 430.160156 476.929688 431.320312 L 485.675781 481.921875 C 485.878906 483.085938 486.816406 484.039062 487.761719 484.039062 " fill-opacity="1" fill-rule="nonzero"/><path fill="rgb(100%, 100%, 100%)" d="M 534.53125 554.0625 L 580.566406 554.0625 C 581.511719 554.0625 582.121094 553.113281 581.921875 551.949219 L 573.171875 501.351562 C 572.96875 500.183594 572.027344 499.234375 571.085938 499.234375 L 525.050781 499.234375 C 524.101562 499.234375 523.492188 500.183594 523.695312 501.351562 L 532.441406 551.949219 C 532.640625 553.113281 533.582031 554.0625 534.53125 554.0625 " fill-opacity="1" fill-rule="nonzero"/><path fill="rgb(100%, 100%, 100%)" d="M 410.839844 554.0625 L 456.875 554.0625 C 457.824219 554.0625 458.433594 553.113281 458.234375 551.949219 L 449.484375 501.347656 C 449.28125 500.183594 448.34375 499.234375 447.394531 499.234375 L 401.363281 499.234375 C 400.414062 499.234375 399.804688 500.183594 400.003906 501.347656 L 408.753906 551.949219 C 408.957031 553.113281 409.894531 554.0625 410.839844 554.0625 " fill-opacity="1" fill-rule="nonzero"/><path fill="rgb(100%, 100%, 100%)" d="M 534.746094 427.386719 L 589.820312 427.386719 C 590.949219 427.386719 591.679688 426.246094 591.441406 424.855469 L 580.972656 364.324219 C 580.734375 362.925781 579.609375 361.785156 578.476562 361.785156 L 523.402344 361.785156 C 522.273438 361.785156 521.542969 362.925781 521.78125 364.324219 L 532.246094 424.855469 C 532.492188 426.246094 533.613281 427.386719 534.746094 427.386719 " fill-opacity="1" fill-rule="nonzero"/><path fill="rgb(24.708557%, 39.99939%, 72.938538%)" d="M 498.855469 627.007812 C 465.277344 627.007812 431.703125 627.007812 398.128906 627.007812 C 364.550781 627.007812 330.972656 627.007812 297.394531 627.007812 C 278.488281 627.007812 259.582031 627.007812 240.675781 627.007812 C 238.78125 627.007812 238.777344 630.625 240.675781 630.625 C 274.253906 630.625 307.828125 630.625 341.40625 630.625 C 374.980469 630.625 408.554688 630.625 442.136719 630.625 C 461.039062 630.625 479.953125 630.625 498.855469 630.625 C 500.746094 630.625 500.75 627.007812 498.855469 627.007812 " fill-opacity="1" fill-rule="nonzero"/><path fill="rgb(94.509888%, 28.239441%, 36.859131%)" d="M 542.820312 265.0625 C 542.820312 272.535156 537.890625 278.59375 531.8125 278.59375 C 525.734375 278.59375 520.804688 272.535156 520.804688 265.0625 C 520.804688 257.59375 525.734375 251.535156 531.8125 251.535156 C 537.890625 251.535156 542.820312 257.59375 542.820312 265.0625 " fill-opacity="1" fill-rule="nonzero"/><path fill="rgb(24.708557%, 39.99939%, 72.938538%)" d="M 220.621094 395.488281 C 252.785156 395.488281 284.945312 395.488281 317.109375 395.488281 C 318.054688 395.488281 318.054688 393.683594 317.109375 393.683594 C 284.945312 393.683594 252.785156 393.683594 220.621094 393.683594 C 219.675781 393.683594 219.675781 395.488281 220.621094 395.488281 " fill-opacity="1" fill-rule="nonzero"/><path fill="rgb(24.708557%, 39.99939%, 72.938538%)" d="M 222.167969 408.777344 C 255.871094 408.777344 289.578125 408.777344 323.28125 408.777344 C 324.230469 408.777344 324.230469 406.96875 323.28125 406.96875 C 289.578125 406.96875 255.871094 406.96875 222.167969 406.96875 C 221.222656 406.96875 221.21875 408.777344 222.167969 408.777344 " fill-opacity="1" fill-rule="nonzero"/><path fill="rgb(24.708557%, 39.99939%, 72.938538%)" d="M 225.253906 425.382812 C 258.960938 425.382812 292.664062 425.382812 326.371094 425.382812 C 327.320312 425.382812 327.320312 423.574219 326.371094 423.574219 C 292.664062 423.574219 258.960938 423.574219 225.253906 423.574219 C 224.308594 423.574219 224.308594 425.382812 225.253906 425.382812 " fill-opacity="1" fill-rule="nonzero"/><path fill="rgb(24.708557%, 39.99939%, 72.938538%)" d="M 228.726562 441.988281 C 262.433594 441.988281 296.140625 441.988281 329.84375 441.988281 C 330.789062 441.988281 330.792969 440.179688 329.84375 440.179688 C 296.140625 440.179688 262.433594 440.179688 228.726562 440.179688 C 227.78125 440.179688 227.78125 441.988281 228.726562 441.988281 " fill-opacity="1" fill-rule="nonzero"/><path fill="rgb(24.708557%, 39.99939%, 72.938538%)" d="M 237.21875 488.488281 C 270.921875 488.488281 304.628906 488.488281 338.332031 488.488281 C 339.28125 488.488281 339.28125 486.679688 338.332031 486.679688 C 304.628906 486.679688 270.921875 486.679688 237.21875 486.679688 C 236.273438 486.679688 236.269531 488.488281 237.21875 488.488281 " fill-opacity="1" fill-rule="nonzero"/><path fill="rgb(24.708557%, 39.99939%, 72.938538%)" d="M 244.164062 527.550781 C 277.871094 527.550781 311.578125 527.550781 345.28125 527.550781 C 346.226562 527.550781 346.230469 525.742188 345.28125 525.742188 C 311.578125 525.742188 277.871094 525.742188 244.164062 525.742188 C 243.21875 525.742188 243.21875 527.550781 244.164062 527.550781 " fill-opacity="1" fill-rule="nonzero"/><path fill="rgb(24.708557%, 39.99939%, 72.938538%)" d="M 244.164062 542.101562 C 277.871094 542.101562 311.578125 542.101562 345.28125 542.101562 C 346.226562 542.101562 346.230469 540.292969 345.28125 540.292969 C 311.578125 540.292969 277.871094 540.292969 244.164062 540.292969 C 243.21875 540.292969 243.21875 542.101562 244.164062 542.101562 " fill-opacity="1" fill-rule="nonzero"/><path fill="rgb(6.269836%, 6.269836%, 12.159729%)" d="M 249.957031 586.226562 C 308.972656 586.226562 367.984375 586.226562 427.003906 586.226562 C 443.628906 586.226562 460.257812 586.226562 476.886719 586.226562 C 477.832031 586.226562 477.835938 584.417969 476.886719 584.417969 C 417.875 584.417969 358.855469 584.417969 299.84375 584.417969 C 283.210938 584.417969 266.582031 584.417969 249.957031 584.417969 C 249.007812 584.417969 249.007812 586.226562 249.957031 586.226562 " fill-opacity="1" fill-rule="nonzero"/><path fill="rgb(94.509888%, 28.239441%, 36.859131%)" d="M 517.4375 271.480469 C 515.753906 276.003906 512.289062 278.992188 508.230469 279.246094 C 507.285156 279.308594 507.28125 281.113281 508.230469 281.054688 C 512.777344 280.769531 516.804688 277.503906 518.710938 272.394531 C 519.097656 271.347656 517.832031 270.425781 517.4375 271.480469 " fill-opacity="1" fill-rule="nonzero"/><path fill="rgb(6.269836%, 6.269836%, 12.159729%)" d="M 559.449219 233.402344 C 555.992188 216.011719 546.511719 200.589844 533.570312 192.246094 C 526.753906 187.851562 519.203125 185.34375 511.519531 184.902344 C 503.566406 184.449219 495.828125 186.664062 488.335938 189.753906 C 480.734375 192.890625 473.273438 196.761719 465.351562 198.558594 C 461.578125 199.414062 457.382812 199.972656 453.621094 198.753906 C 450.613281 197.78125 446.851562 194.644531 447.398438 190.203125 C 447.816406 186.832031 450.8125 184.320312 453.460938 184.292969 C 456.625 184.253906 459.257812 187.425781 460.433594 190.804688 C 463.554688 199.753906 457.417969 208.652344 451.515625 212.910156 C 443.773438 218.484375 434.207031 221.128906 425.347656 222.042969 C 415.699219 223.035156 406.066406 221.808594 396.785156 218.4375 C 393.148438 217.113281 391.597656 224.09375 395.226562 225.40625 C 413.273438 231.964844 433.589844 231.039062 450.84375 221.453125 C 458.429688 217.230469 465.511719 209.589844 466.851562 198.984375 C 468.003906 189.8125 463.738281 179.308594 455.863281 177.382812 C 448.648438 175.617188 440.640625 182.972656 441.585938 192.433594 C 442.714844 203.773438 452.863281 207.175781 460.726562 206.515625 C 478.996094 204.980469 494.855469 190.273438 513.542969 192.296875 C 533.019531 194.414062 549.167969 212.15625 553.777344 235.328125 C 554.675781 239.84375 560.347656 237.933594 559.449219 233.402344 " fill-opacity="1" fill-rule="nonzero"/><path fill="rgb(94.898987%, 67.059326%, 78.039551%)" d="M 553.273438 281.515625 C 557.703125 291.375 562.128906 301.226562 566.558594 311.085938 C 554.230469 318.890625 541.902344 326.695312 529.574219 334.5 L 518.074219 309.988281 L 553.273438 281.515625 " fill-opacity="1" fill-rule="nonzero"/><path fill="rgb(94.509888%, 28.239441%, 36.859131%)" d="M 163.984375 525.351562 C 161.382812 546.066406 171.054688 566.027344 187.144531 572.96875 C 188.039062 573.355469 188.425781 571.609375 187.535156 571.226562 C 172.265625 564.636719 162.929688 545.527344 165.402344 525.835938 C 165.542969 524.699219 164.128906 524.207031 163.984375 525.351562 " fill-opacity="1" fill-rule="nonzero"/><path fill="rgb(94.509888%, 28.239441%, 36.859131%)" d="M 159.679688 580.78125 C 141.253906 576.472656 122.175781 577.101562 103.988281 582.78125 C 99.550781 584.164062 95.011719 585.707031 90.796875 587.945312 C 87.871094 589.5 85.082031 591.828125 83.867188 595.609375 C 81.066406 604.296875 88.546875 607.996094 94.195312 608.390625 C 104.660156 609.125 115.25 606.84375 125.015625 602.25 C 125.613281 601.96875 125.8125 600.664062 125.015625 600.507812 C 109.414062 597.390625 93.195312 606.242188 84.652344 622.609375 C 84.136719 623.59375 85.410156 624.5 85.921875 623.523438 C 94.078125 607.886719 109.699219 599.269531 124.625 602.25 C 124.625 601.667969 124.625 601.089844 124.625 600.507812 C 117.023438 604.082031 109.03125 606.203125 100.890625 606.617188 C 97.363281 606.792969 93.582031 606.980469 90.140625 605.867188 C 85.863281 604.476562 83.273438 599.949219 85.851562 594.765625 C 87.910156 590.625 92.222656 589.074219 95.746094 587.632812 C 99.589844 586.0625 103.492188 584.722656 107.4375 583.617188 C 115.417969 581.382812 123.566406 580.109375 131.746094 579.8125 C 140.980469 579.472656 150.210938 580.402344 159.289062 582.523438 C 160.214844 582.738281 160.609375 581 159.679688 580.78125 " fill-opacity="1" fill-rule="nonzero"/><path fill="rgb(6.269836%, 6.269836%, 12.159729%)" d="M 612.917969 356.136719 C 579.613281 408.90625 558.105469 472.488281 550.886719 538.675781 C 548.824219 557.601562 547.9375 576.695312 548.242188 595.789062 C 548.722656 595.710938 549.203125 595.628906 549.6875 595.550781 C 543.191406 573.542969 523.597656 559.535156 504.824219 563.445312 C 503.894531 563.640625 504.292969 565.382812 505.21875 565.1875 C 523.152344 561.453125 542.0625 575.019531 548.269531 596.03125 C 548.539062 596.941406 549.730469 596.867188 549.710938 595.789062 C 548.65625 529.414062 562.242188 463.007812 588.4375 404.972656 C 595.941406 388.347656 604.476562 372.4375 613.960938 357.417969 C 614.53125 356.511719 613.5 355.222656 612.917969 356.136719 " fill-opacity="1" fill-rule="nonzero"/><path fill="rgb(6.269836%, 6.269836%, 12.159729%)" d="M 483.210938 317.289062 C 486.863281 332.824219 495.421875 345.671875 506.050781 354.925781 C 518.304688 365.59375 532.945312 370.925781 547.695312 373.421875 C 556.734375 374.953125 565.863281 375.472656 574.980469 375.679688 C 575.925781 375.699219 575.925781 373.894531 574.980469 373.871094 C 546.667969 373.234375 515.257812 368.683594 495.449219 340.851562 C 490.480469 333.871094 486.726562 325.738281 484.628906 316.8125 C 484.367188 315.699219 482.945312 316.175781 483.210938 317.289062 " fill-opacity="1" fill-rule="nonzero"/><path fill="rgb(100%, 100%, 100%)" d="M 251.429688 644.96875 C 297.46875 644.96875 343.503906 644.96875 389.542969 644.96875 C 435.578125 644.96875 481.613281 644.96875 527.652344 644.96875 C 553.445312 644.96875 579.238281 644.96875 605.03125 644.96875 C 605.976562 644.96875 605.980469 643.164062 605.03125 643.164062 C 558.996094 643.164062 512.960938 643.164062 466.921875 643.164062 C 420.882812 643.164062 374.847656 643.164062 328.8125 643.164062 C 303.015625 643.164062 277.222656 643.164062 251.429688 643.164062 C 250.484375 643.164062 250.484375 644.96875 251.429688 644.96875 " fill-opacity="1" fill-rule="nonzero"/></svg>