<svg xmlns="http://www.w3.org/2000/svg" xmlns:xlink="http://www.w3.org/1999/xlink" width="1080" zoomAndPan="magnify" viewBox="0 0 810 809.999993" height="1080" preserveAspectRatio="xMidYMid meet" version="1.0"><defs><clipPath id="id1"><path d="M 43.089844 81 L 766.839844 81 L 766.839844 730.5 L 43.089844 730.5 Z M 43.089844 81 " clip-rule="nonzero"/></clipPath></defs><g clip-path="url(#id1)"><path fill="rgb(65.098572%, 64.709473%, 85.488892%)" d="M 709.566406 561.347656 C 709.566406 570.488281 702.128906 577.925781 693 577.925781 L 116.558594 577.925781 C 107.417969 577.925781 99.992188 570.488281 99.992188 561.347656 L 99.992188 154.875 C 99.992188 145.738281 107.417969 138.296875 116.558594 138.296875 L 693 138.296875 C 702.128906 138.296875 709.566406 145.738281 709.566406 154.875 Z M 693 81.285156 L 116.558594 81.285156 C 75.988281 81.285156 42.972656 114.296875 42.972656 154.875 L 42.972656 561.347656 C 42.972656 601.910156 75.988281 634.921875 116.558594 634.921875 L 311.445312 634.921875 C 295.84375 652.234375 284.988281 673.917969 280.9375 697.902344 L 262.6875 697.902344 C 253.660156 697.902344 246.351562 705.210938 246.351562 714.238281 C 246.351562 723.261719 253.660156 730.585938 262.6875 730.585938 L 546.871094 730.585938 C 555.898438 730.585938 563.207031 723.261719 563.207031 714.238281 C 563.207031 705.210938 555.898438 697.902344 546.871094 697.902344 L 528.621094 697.902344 C 524.570312 673.917969 513.714844 652.234375 498.113281 634.921875 L 693 634.921875 C 733.570312 634.921875 766.585938 601.910156 766.585938 561.347656 L 766.585938 154.875 C 766.585938 114.296875 733.570312 81.285156 693 81.285156 " fill-opacity="1" fill-rule="nonzero"/></g><path fill="rgb(65.098572%, 64.709473%, 85.488892%)" d="M 294.996094 230.355469 L 294.996094 160.972656 L 261.996094 160.972656 L 261.996094 177.898438 L 274.261719 177.898438 L 274.261719 230.355469 L 258.824219 230.355469 L 258.824219 247.277344 L 310.433594 247.277344 L 310.433594 230.355469 L 294.996094 230.355469 " fill-opacity="1" fill-rule="nonzero"/><path fill="rgb(65.098572%, 64.709473%, 85.488892%)" d="M 543.757812 230.355469 L 543.757812 160.972656 L 510.757812 160.972656 L 510.757812 177.898438 L 523.027344 177.898438 L 523.027344 230.355469 L 507.585938 230.355469 L 507.585938 247.277344 L 559.199219 247.277344 L 559.199219 230.355469 L 543.757812 230.355469 " fill-opacity="1" fill-rule="nonzero"/><path fill="rgb(65.098572%, 64.709473%, 85.488892%)" d="M 404.777344 160.972656 C 385.386719 160.972656 369.660156 180.304688 369.660156 204.132812 C 369.660156 227.960938 385.386719 247.277344 404.777344 247.277344 C 424.167969 247.277344 439.898438 227.960938 439.898438 204.132812 C 439.898438 180.304688 424.167969 160.972656 404.777344 160.972656 Z M 404.777344 177.898438 C 410.429688 177.898438 414.539062 181.90625 416.484375 184.296875 C 420.609375 189.355469 422.972656 196.59375 422.972656 204.132812 C 422.972656 211.65625 420.609375 218.894531 416.484375 223.953125 C 414.539062 226.347656 410.429688 230.355469 404.777344 230.355469 C 399.128906 230.355469 395.019531 226.347656 393.074219 223.953125 C 388.949219 218.894531 386.585938 211.65625 386.585938 204.132812 C 386.585938 196.59375 388.949219 189.355469 393.074219 184.296875 C 395.019531 181.90625 399.128906 177.898438 404.777344 177.898438 " fill-opacity="1" fill-rule="nonzero"/><path fill="rgb(65.098572%, 64.709473%, 85.488892%)" d="M 294.996094 538.3125 L 294.996094 468.945312 L 261.996094 468.945312 L 261.996094 485.855469 L 274.261719 485.855469 L 274.261719 538.3125 L 258.824219 538.3125 L 258.824219 555.234375 L 310.433594 555.234375 L 310.433594 538.3125 L 294.996094 538.3125 " fill-opacity="1" fill-rule="nonzero"/><path fill="rgb(65.098572%, 64.709473%, 85.488892%)" d="M 543.757812 538.3125 L 543.757812 468.945312 L 510.757812 468.945312 L 510.757812 485.855469 L 523.027344 485.855469 L 523.027344 538.3125 L 507.585938 538.3125 L 507.585938 555.234375 L 559.199219 555.234375 L 559.199219 538.3125 L 543.757812 538.3125 " fill-opacity="1" fill-rule="nonzero"/><path fill="rgb(65.098572%, 64.709473%, 85.488892%)" d="M 404.777344 468.945312 C 385.386719 468.945312 369.660156 488.261719 369.660156 512.089844 C 369.660156 535.917969 385.386719 555.234375 404.777344 555.234375 C 424.167969 555.234375 439.898438 535.917969 439.898438 512.089844 C 439.898438 488.261719 424.167969 468.945312 404.777344 468.945312 Z M 404.777344 485.855469 C 410.429688 485.855469 414.539062 489.859375 416.484375 492.253906 C 420.609375 497.328125 422.972656 504.550781 422.972656 512.089844 C 422.972656 519.628906 420.609375 526.851562 416.484375 531.925781 C 414.539062 534.304688 410.429688 538.3125 404.777344 538.3125 C 399.128906 538.3125 395.019531 534.304688 393.074219 531.925781 C 388.949219 526.851562 386.585938 519.628906 386.585938 512.089844 C 386.585938 504.550781 388.949219 497.328125 393.074219 492.253906 C 395.019531 489.859375 399.128906 485.855469 404.777344 485.855469 " fill-opacity="1" fill-rule="nonzero"/><path fill="rgb(65.098572%, 64.709473%, 85.488892%)" d="M 415.144531 384.339844 L 415.144531 314.957031 L 382.144531 314.957031 L 382.144531 331.882812 L 394.414062 331.882812 L 394.414062 384.339844 L 378.972656 384.339844 L 378.972656 401.25 L 430.585938 401.25 L 430.585938 384.339844 L 415.144531 384.339844 " fill-opacity="1" fill-rule="nonzero"/><path fill="rgb(65.098572%, 64.709473%, 85.488892%)" d="M 524.929688 314.957031 C 505.539062 314.957031 489.808594 334.277344 489.808594 358.105469 C 489.808594 381.933594 505.539062 401.25 524.929688 401.25 C 544.320312 401.25 560.035156 381.933594 560.035156 358.105469 C 560.035156 334.277344 544.320312 314.957031 524.929688 314.957031 Z M 524.929688 331.882812 C 530.582031 331.882812 534.691406 335.890625 536.636719 338.269531 C 540.757812 343.34375 543.125 350.566406 543.125 358.105469 C 543.125 365.644531 540.757812 372.867188 536.636719 377.941406 C 534.691406 380.332031 530.582031 384.339844 524.929688 384.339844 C 519.277344 384.339844 515.167969 380.332031 513.222656 377.941406 C 509.101562 372.867188 506.734375 365.644531 506.734375 358.105469 C 506.734375 350.566406 509.101562 343.34375 513.222656 338.269531 C 515.167969 335.890625 519.277344 331.882812 524.929688 331.882812 " fill-opacity="1" fill-rule="nonzero"/><path fill="rgb(65.098572%, 64.709473%, 85.488892%)" d="M 284.628906 314.957031 C 265.238281 314.957031 249.507812 334.277344 249.507812 358.105469 C 249.507812 381.933594 265.238281 401.25 284.628906 401.25 C 304.019531 401.25 319.75 381.933594 319.75 358.105469 C 319.75 334.277344 304.019531 314.957031 284.628906 314.957031 Z M 284.628906 331.882812 C 290.28125 331.882812 294.390625 335.890625 296.335938 338.269531 C 300.457031 343.34375 302.824219 350.566406 302.824219 358.105469 C 302.824219 365.644531 300.457031 372.867188 296.335938 377.941406 C 294.390625 380.332031 290.28125 384.339844 284.628906 384.339844 C 278.976562 384.339844 274.867188 380.332031 272.921875 377.941406 C 268.800781 372.867188 266.433594 365.644531 266.433594 358.105469 C 266.433594 350.566406 268.800781 343.34375 272.921875 338.269531 C 274.867188 335.890625 278.976562 331.882812 284.628906 331.882812 " fill-opacity="1" fill-rule="nonzero"/></svg>