<svg xmlns="http://www.w3.org/2000/svg" xmlns:xlink="http://www.w3.org/1999/xlink" width="1080" zoomAndPan="magnify" viewBox="0 0 810 809.999993" height="1080" preserveAspectRatio="xMidYMid meet" version="1.0"><defs><clipPath id="id1"><path d="M 375 311.8125 L 670.761719 311.8125 L 670.761719 315.292969 L 375 315.292969 Z M 375 311.8125 " clip-rule="nonzero"/></clipPath><clipPath id="id2"><path d="M 582.753906 628.957031 L 390.179688 628.957031 C 359.238281 628.957031 336.152344 594.621094 342.582031 558.15625 L 381.722656 336.359375 C 386.5 309.289062 406.34375 289.929688 429.316406 289.929688 L 621.890625 289.929688 C 652.835938 289.929688 675.921875 324.269531 669.488281 360.730469 L 630.351562 582.53125 C 625.574219 609.601562 605.730469 628.957031 582.753906 628.957031 Z M 582.753906 628.957031 " clip-rule="nonzero"/></clipPath><clipPath id="id3"><path d="M 373.679688 372.132812 L 670.761719 372.132812 L 670.761719 379.960938 L 373.679688 379.960938 Z M 373.679688 372.132812 " clip-rule="nonzero"/></clipPath><clipPath id="id4"><path d="M 582.753906 628.957031 L 390.179688 628.957031 C 359.238281 628.957031 336.152344 594.621094 342.582031 558.15625 L 381.722656 336.359375 C 386.5 309.289062 406.34375 289.929688 429.316406 289.929688 L 621.890625 289.929688 C 652.835938 289.929688 675.921875 324.269531 669.488281 360.730469 L 630.351562 582.53125 C 625.574219 609.601562 605.730469 628.957031 582.753906 628.957031 Z M 582.753906 628.957031 " clip-rule="nonzero"/></clipPath><clipPath id="id5"><path d="M 359.175781 439.410156 L 670.761719 439.410156 L 670.761719 455.359375 L 359.175781 455.359375 Z M 359.175781 439.410156 " clip-rule="nonzero"/></clipPath><clipPath id="id6"><path d="M 582.753906 628.957031 L 390.179688 628.957031 C 359.238281 628.957031 336.152344 594.621094 342.582031 558.15625 L 381.722656 336.359375 C 386.5 309.289062 406.34375 289.929688 429.316406 289.929688 L 621.890625 289.929688 C 652.835938 289.929688 675.921875 324.269531 669.488281 360.730469 L 630.351562 582.53125 C 625.574219 609.601562 605.730469 628.957031 582.753906 628.957031 Z M 582.753906 628.957031 " clip-rule="nonzero"/></clipPath><clipPath id="id7"><path d="M 353.664062 516.550781 L 670.761719 516.550781 L 670.761719 525.25 L 353.664062 525.25 Z M 353.664062 516.550781 " clip-rule="nonzero"/></clipPath><clipPath id="id8"><path d="M 582.753906 628.957031 L 390.179688 628.957031 C 359.238281 628.957031 336.152344 594.621094 342.582031 558.15625 L 381.722656 336.359375 C 386.5 309.289062 406.34375 289.929688 429.316406 289.929688 L 621.890625 289.929688 C 652.835938 289.929688 675.921875 324.269531 669.488281 360.730469 L 630.351562 582.53125 C 625.574219 609.601562 605.730469 628.957031 582.753906 628.957031 Z M 582.753906 628.957031 " clip-rule="nonzero"/></clipPath><clipPath id="id9"><path d="M 361.496094 560.628906 L 670.761719 560.628906 L 670.761719 598.328125 L 361.496094 598.328125 Z M 361.496094 560.628906 " clip-rule="nonzero"/></clipPath><clipPath id="id10"><path d="M 582.753906 628.957031 L 390.179688 628.957031 C 359.238281 628.957031 336.152344 594.621094 342.582031 558.15625 L 381.722656 336.359375 C 386.5 309.289062 406.34375 289.929688 429.316406 289.929688 L 621.890625 289.929688 C 652.835938 289.929688 675.921875 324.269531 669.488281 360.730469 L 630.351562 582.53125 C 625.574219 609.601562 605.730469 628.957031 582.753906 628.957031 Z M 582.753906 628.957031 " clip-rule="nonzero"/></clipPath><clipPath id="id11"><path d="M 153 588 L 629 588 L 629 705.539062 L 153 705.539062 Z M 153 588 " clip-rule="nonzero"/></clipPath><clipPath id="id12"><path d="M 646 82 L 722 82 L 722 161 L 646 161 Z M 646 82 " clip-rule="nonzero"/></clipPath><clipPath id="id13"><path d="M 651.09375 76.628906 L 729.285156 90.984375 L 707.203125 211.226562 L 629.011719 196.867188 Z M 651.09375 76.628906 " clip-rule="nonzero"/></clipPath><clipPath id="id14"><path d="M 651.09375 76.628906 L 729.285156 90.984375 L 707.203125 211.226562 L 629.011719 196.867188 Z M 651.09375 76.628906 " clip-rule="nonzero"/></clipPath><clipPath id="id15"><path d="M 651.09375 76.628906 L 729.285156 90.984375 L 707.203125 211.226562 L 629.011719 196.867188 Z M 651.09375 76.628906 " clip-rule="nonzero"/></clipPath><clipPath id="id16"><path d="M 643 173 L 670 173 L 670 201 L 643 201 Z M 643 173 " clip-rule="nonzero"/></clipPath><clipPath id="id17"><path d="M 651.09375 76.628906 L 729.285156 90.984375 L 707.203125 211.226562 L 629.011719 196.867188 Z M 651.09375 76.628906 " clip-rule="nonzero"/></clipPath><clipPath id="id18"><path d="M 651.09375 76.628906 L 729.285156 90.984375 L 707.203125 211.226562 L 629.011719 196.867188 Z M 651.09375 76.628906 " clip-rule="nonzero"/></clipPath><clipPath id="id19"><path d="M 651.09375 76.628906 L 729.285156 90.984375 L 707.203125 211.226562 L 629.011719 196.867188 Z M 651.09375 76.628906 " clip-rule="nonzero"/></clipPath><clipPath id="id20"><path d="M 675 98 L 679 98 L 679 101 L 675 101 Z M 675 98 " clip-rule="nonzero"/></clipPath><clipPath id="id21"><path d="M 651.09375 76.628906 L 729.285156 90.984375 L 707.203125 211.226562 L 629.011719 196.867188 Z M 651.09375 76.628906 " clip-rule="nonzero"/></clipPath><clipPath id="id22"><path d="M 651.09375 76.628906 L 729.285156 90.984375 L 707.203125 211.226562 L 629.011719 196.867188 Z M 651.09375 76.628906 " clip-rule="nonzero"/></clipPath><clipPath id="id23"><path d="M 651.09375 76.628906 L 729.285156 90.984375 L 707.203125 211.226562 L 629.011719 196.867188 Z M 651.09375 76.628906 " clip-rule="nonzero"/></clipPath></defs><path fill="rgb(94.509888%, 28.239441%, 36.859131%)" d="M 151.054688 532.347656 L 219.027344 518.90625 L 208.191406 589.628906 L 157.949219 589.628906 L 151.054688 532.347656 " fill-opacity="1" fill-rule="nonzero"/><path fill="rgb(95.289612%, 79.219055%, 40.388489%)" d="M 180.605469 379.738281 C 170.878906 350.167969 173.503906 309.085938 195.382812 283.617188 C 200.050781 278.179688 216.0625 259.546875 233.804688 264.625 C 251.382812 269.664062 260.78125 295.148438 262.371094 313.28125 C 266.71875 362.863281 217.628906 414.128906 195.382812 404.660156 C 187.734375 401.402344 184.472656 391.484375 180.605469 379.738281 " fill-opacity="1" fill-rule="nonzero"/><path fill="rgb(95.289612%, 79.219055%, 40.388489%)" d="M 157.949219 458.058594 C 173.574219 429.375 157.84375 381.335938 139.230469 377.363281 C 126.753906 374.707031 113.425781 391.945312 107.707031 405.84375 C 97.121094 431.582031 102.53125 470.410156 120.511719 478.234375 C 133.382812 483.835938 150.117188 472.433594 157.949219 458.058594 " fill-opacity="1" fill-rule="nonzero"/><path fill="rgb(95.289612%, 79.219055%, 40.388489%)" d="M 121.886719 320.34375 C 118.230469 342.222656 137.402344 366.617188 149.433594 363.570312 C 157.5 361.53125 162.070312 347.230469 162.722656 337.171875 C 163.925781 318.550781 152.839844 296.699219 140.414062 297.230469 C 131.519531 297.613281 123.714844 309.382812 121.886719 320.34375 " fill-opacity="1" fill-rule="nonzero"/><path fill="rgb(6.269836%, 6.269836%, 12.159729%)" d="M 131.222656 305.410156 C 159.074219 355.996094 179.039062 412.710938 189.886719 471.988281 C 192.972656 488.859375 195.308594 505.921875 196.902344 523.09375 C 197.007812 524.21875 198.484375 524.234375 198.378906 523.09375 C 192.761719 462.535156 177.808594 403.378906 154.453125 349.324219 C 147.800781 333.929688 140.464844 318.972656 132.5 304.511719 C 131.976562 303.5625 130.695312 304.453125 131.222656 305.410156 " fill-opacity="1" fill-rule="nonzero"/><path fill="rgb(6.269836%, 6.269836%, 12.159729%)" d="M 151.542969 533.617188 C 174.070312 537.558594 200.84375 541.261719 218.558594 519.976562 C 219.234375 519.167969 218.1875 517.910156 217.515625 518.71875 C 200.214844 539.507812 173.902344 535.742188 151.9375 531.898438 C 151.003906 531.738281 150.601562 533.453125 151.542969 533.617188 " fill-opacity="1" fill-rule="nonzero"/><path fill="rgb(6.269836%, 6.269836%, 12.159729%)" d="M 180.914062 428.351562 C 190.90625 415.898438 196.824219 399.839844 200.597656 383.324219 C 205 364.039062 207.332031 344.011719 210.304688 324.359375 C 212.050781 312.804688 213.796875 301.25 215.542969 289.695312 C 215.714844 288.578125 214.289062 288.09375 214.117188 289.222656 C 211.148438 308.867188 208.179688 328.503906 205.210938 348.148438 C 202.417969 366.644531 199.824219 385.539062 193.3125 402.773438 C 189.9375 411.703125 185.542969 420.019531 179.871094 427.089844 C 179.210938 427.914062 180.253906 429.175781 180.914062 428.351562 " fill-opacity="1" fill-rule="nonzero"/><path fill="rgb(6.269836%, 6.269836%, 12.159729%)" d="M 186.511719 450.394531 C 163.210938 449.9375 140.292969 442.300781 120.105469 428.273438 C 119.28125 427.703125 118.539062 429.238281 119.359375 429.808594 C 139.769531 443.992188 162.957031 451.714844 186.511719 452.175781 C 187.464844 452.195312 187.464844 450.414062 186.511719 450.394531 " fill-opacity="1" fill-rule="nonzero"/><path fill="rgb(94.509888%, 28.239441%, 36.859131%)" d="M 585.28125 194.371094 C 584.6875 170.117188 558.105469 151.570312 536.625 148.015625 C 529.003906 146.753906 511.050781 143.777344 497.703125 158.667969 C 488.570312 168.851562 482.355469 186.53125 486.199219 200.765625 C 494.917969 233.042969 555 246.132812 576.875 218.875 C 577.925781 217.570312 585.605469 207.722656 585.28125 194.371094 " fill-opacity="1" fill-rule="nonzero"/><path fill="rgb(94.898987%, 67.059326%, 78.039551%)" d="M 548.097656 293.550781 L 518.550781 293.550781 L 518.550781 250.597656 L 548.097656 250.597656 L 548.097656 293.550781 " fill-opacity="1" fill-rule="nonzero"/><path fill="rgb(65.098572%, 64.709473%, 85.488892%)" d="M 582.753906 628.957031 L 390.179688 628.957031 C 359.238281 628.957031 336.152344 594.617188 342.585938 558.15625 L 381.722656 336.355469 C 386.5 309.289062 406.34375 289.925781 429.320312 289.925781 L 621.890625 289.925781 C 652.835938 289.925781 675.925781 324.269531 669.492188 360.730469 L 630.351562 582.53125 C 625.578125 609.601562 605.730469 628.957031 582.753906 628.957031 " fill-opacity="1" fill-rule="nonzero"/><g clip-path="url(#id1)"><g clip-path="url(#id2)"><path fill="rgb(95.289612%, 86.669922%, 89.019775%)" d="M 375.886719 314.03125 C 452.769531 314.289062 529.652344 314.542969 606.535156 314.800781 C 627.984375 314.871094 649.429688 314.945312 670.878906 315.015625 C 672.046875 315.023438 672.050781 312.824219 670.878906 312.820312 C 593.992188 312.566406 517.105469 312.308594 440.222656 312.046875 C 418.777344 311.980469 397.328125 311.90625 375.886719 311.835938 C 374.710938 311.832031 374.710938 314.027344 375.886719 314.03125 " fill-opacity="1" fill-rule="nonzero"/></g></g><g clip-path="url(#id3)"><g clip-path="url(#id4)"><path fill="rgb(95.289612%, 86.669922%, 89.019775%)" d="M 374.667969 374.414062 C 452.960938 375.851562 531.253906 377.285156 609.550781 378.722656 C 631.742188 379.128906 653.9375 379.535156 676.136719 379.945312 C 677.316406 379.964844 677.316406 377.769531 676.136719 377.746094 C 597.847656 376.308594 519.550781 374.875 441.253906 373.4375 C 419.058594 373.03125 396.859375 372.625 374.667969 372.21875 C 373.492188 372.195312 373.492188 374.394531 374.667969 374.414062 " fill-opacity="1" fill-rule="nonzero"/></g></g><g clip-path="url(#id5)"><g clip-path="url(#id6)"><path fill="rgb(95.289612%, 86.669922%, 89.019775%)" d="M 360.085938 441.789062 C 404.40625 443.519531 448.722656 445.246094 493.039062 446.976562 C 537.355469 448.703125 581.671875 450.433594 625.992188 452.15625 C 651.085938 453.136719 676.179688 454.113281 701.269531 455.097656 C 702.445312 455.140625 702.445312 452.945312 701.269531 452.898438 C 656.953125 451.167969 612.632812 449.441406 568.320312 447.714844 C 524 445.984375 479.683594 444.257812 435.371094 442.53125 C 410.273438 441.550781 385.179688 440.574219 360.085938 439.59375 C 358.914062 439.546875 358.914062 441.746094 360.085938 441.789062 " fill-opacity="1" fill-rule="nonzero"/></g></g><g clip-path="url(#id7)"><g clip-path="url(#id8)"><path fill="rgb(95.289612%, 86.669922%, 89.019775%)" d="M 354.792969 518.753906 C 397.839844 519.566406 440.890625 520.382812 483.9375 521.199219 C 526.988281 522.015625 570.035156 522.828125 613.085938 523.644531 C 637.339844 524.101562 661.59375 524.5625 685.839844 525.019531 C 687.019531 525.046875 687.019531 522.847656 685.839844 522.824219 C 642.796875 522.007812 599.75 521.195312 556.695312 520.378906 C 513.652344 519.566406 470.597656 518.75 427.550781 517.933594 C 403.296875 517.476562 379.046875 517.015625 354.792969 516.558594 C 353.617188 516.53125 353.617188 518.730469 354.792969 518.753906 " fill-opacity="1" fill-rule="nonzero"/></g></g><g clip-path="url(#id9)"><g clip-path="url(#id10)"><path fill="rgb(95.289612%, 86.669922%, 89.019775%)" d="M 362.546875 562.988281 C 407.777344 569.648438 453.089844 575.511719 498.46875 580.554688 C 543.847656 585.597656 589.289062 589.828125 634.769531 593.25 C 660.417969 595.175781 686.078125 596.84375 711.746094 598.257812 C 712.917969 598.320312 712.914062 596.125 711.746094 596.0625 C 666.226562 593.554688 620.730469 590.242188 575.292969 586.113281 C 529.851562 581.984375 484.460938 577.046875 439.136719 571.292969 C 413.582031 568.046875 388.050781 564.546875 362.546875 560.789062 C 361.382812 560.617188 361.394531 562.816406 362.546875 562.988281 " fill-opacity="1" fill-rule="nonzero"/></g></g><g clip-path="url(#id11)"><path fill="rgb(95.289612%, 79.219055%, 40.388489%)" d="M 625.195312 705.519531 L 156.617188 705.519531 C 154.703125 705.519531 153.136719 703.953125 153.136719 702.039062 L 153.136719 592.257812 C 153.136719 590.34375 154.703125 588.777344 156.617188 588.777344 L 625.195312 588.777344 C 627.113281 588.777344 628.675781 590.34375 628.675781 592.257812 L 628.675781 702.039062 C 628.675781 703.953125 627.113281 705.519531 625.195312 705.519531 " fill-opacity="1" fill-rule="nonzero"/></g><path fill="rgb(6.269836%, 6.269836%, 12.159729%)" d="M 199.742188 606.792969 L 483.257812 606.792969 C 485.679688 606.792969 487.652344 604.414062 487.652344 601.5 L 487.652344 593.332031 C 487.652344 590.425781 485.679688 588.042969 483.257812 588.042969 L 199.742188 588.042969 C 197.328125 588.042969 195.351562 590.425781 195.351562 593.332031 L 195.351562 601.5 C 195.351562 604.414062 197.328125 606.792969 199.742188 606.792969 " fill-opacity="1" fill-rule="nonzero"/><path fill="rgb(6.269836%, 6.269836%, 12.159729%)" d="M 204.027344 588.042969 L 389.097656 588.042969 C 392.898438 588.042969 395.355469 584.289062 394.542969 579.707031 L 359.375 380.386719 C 358.5625 375.804688 354.792969 372.054688 350.984375 372.054688 L 165.917969 372.054688 C 162.113281 372.054688 159.660156 375.804688 160.46875 380.386719 L 195.640625 579.707031 C 196.449219 584.289062 200.222656 588.042969 204.027344 588.042969 " fill-opacity="1" fill-rule="nonzero"/><path fill="rgb(24.708557%, 39.99939%, 72.938538%)" d="M 393.589844 588.777344 C 368.511719 588.777344 343.433594 588.777344 318.351562 588.777344 C 293.277344 588.777344 268.195312 588.777344 243.117188 588.777344 C 228.992188 588.777344 214.871094 588.777344 200.75 588.777344 C 199.335938 588.777344 199.332031 586.132812 200.75 586.132812 C 225.828125 586.132812 250.90625 586.132812 275.988281 586.132812 C 301.0625 586.132812 326.144531 586.132812 351.222656 586.132812 C 365.347656 586.132812 379.46875 586.132812 393.589844 586.132812 C 395.003906 586.132812 395.007812 588.777344 393.589844 588.777344 " fill-opacity="1" fill-rule="nonzero"/><path fill="rgb(94.898987%, 67.059326%, 78.039551%)" d="M 563.242188 230.625 C 557.960938 254.210938 537.804688 268.171875 518.222656 261.808594 C 498.648438 255.441406 487.054688 231.164062 492.339844 207.574219 C 497.621094 183.992188 517.773438 170.03125 537.355469 176.394531 C 556.933594 182.757812 568.527344 207.035156 563.242188 230.625 " fill-opacity="1" fill-rule="nonzero"/><path fill="rgb(94.898987%, 67.059326%, 78.039551%)" d="M 586.875 238.308594 C 583.902344 251.574219 572.5625 259.429688 561.554688 255.851562 C 550.539062 252.265625 544.019531 238.609375 546.992188 225.34375 C 549.960938 212.078125 561.300781 204.226562 572.3125 207.804688 C 583.328125 211.386719 589.847656 225.042969 586.875 238.308594 " fill-opacity="1" fill-rule="nonzero"/><path fill="rgb(94.509888%, 28.239441%, 36.859131%)" d="M 582.265625 231.273438 C 573.660156 231.695312 565.046875 232.117188 556.4375 232.539062 C 555.273438 232.59375 555.261719 234.792969 556.4375 234.734375 C 565.046875 234.3125 573.660156 233.894531 582.265625 233.46875 C 583.4375 233.414062 583.441406 231.21875 582.265625 231.273438 " fill-opacity="1" fill-rule="nonzero"/><path fill="rgb(94.509888%, 28.239441%, 36.859131%)" d="M 565.058594 233.4375 C 566.089844 237.851562 567.121094 242.261719 568.15625 246.679688 C 568.46875 248.039062 570.230469 247.457031 569.914062 246.09375 C 568.878906 241.679688 567.847656 237.265625 566.816406 232.855469 C 566.5 231.496094 564.738281 232.070312 565.058594 233.4375 " fill-opacity="1" fill-rule="nonzero"/><path fill="rgb(6.269836%, 6.269836%, 12.159729%)" d="M 520.386719 200.488281 C 519.25 203.417969 518.117188 206.347656 516.980469 209.269531 C 515.992188 211.816406 519.132812 214.050781 520.128906 211.488281 C 521.261719 208.5625 522.402344 205.632812 523.539062 202.703125 C 524.523438 200.160156 521.382812 197.925781 520.386719 200.488281 " fill-opacity="1" fill-rule="nonzero"/><path fill="rgb(94.509888%, 28.239441%, 36.859131%)" d="M 516.070312 193.65625 C 509.664062 197.15625 503.253906 200.65625 496.851562 204.15625 C 496.390625 204.40625 496.304688 205.179688 496.523438 205.65625 C 498.375 209.75 500.222656 213.839844 502.082031 217.929688 C 502.644531 219.171875 504.21875 218.066406 503.65625 216.824219 C 501.804688 212.730469 499.945312 208.640625 498.097656 204.550781 C 497.984375 205.046875 497.875 205.550781 497.769531 206.054688 C 504.175781 202.550781 510.585938 199.050781 516.992188 195.550781 C 518.058594 194.96875 517.132812 193.074219 516.070312 193.65625 " fill-opacity="1" fill-rule="nonzero"/><path fill="rgb(94.509888%, 28.239441%, 36.859131%)" d="M 513.125 223.257812 C 511.195312 225.957031 508.03125 226.78125 505.394531 225.097656 C 504.359375 224.433594 503.433594 226.328125 504.472656 226.992188 C 507.792969 229.113281 511.941406 228.269531 514.417969 224.808594 C 515.179688 223.742188 513.890625 222.183594 513.125 223.257812 " fill-opacity="1" fill-rule="nonzero"/><path fill="rgb(94.509888%, 28.239441%, 36.859131%)" d="M 524.65625 212.738281 C 520.632812 218.507812 521.257812 227.109375 526.042969 231.953125 C 530.832031 236.796875 537.972656 236.050781 541.992188 230.285156 C 546.015625 224.515625 545.394531 215.914062 540.609375 211.070312 C 535.820312 206.222656 528.679688 206.972656 524.65625 212.738281 " fill-opacity="1" fill-rule="nonzero"/><path fill="rgb(94.898987%, 67.059326%, 78.039551%)" d="M 456.566406 347.4375 L 480.632812 270.871094 C 483.613281 263.734375 490.273438 261.703125 494.0625 264.652344 C 496.707031 266.707031 498.011719 271.222656 497.371094 275.851562 C 493.398438 288.289062 489.429688 300.730469 485.457031 313.167969 C 498.195312 311.140625 510.5625 319.171875 515.964844 332.84375 C 521.019531 345.644531 519.074219 361.097656 511.019531 371.796875 L 456.566406 347.4375 " fill-opacity="1" fill-rule="nonzero"/><path fill="rgb(95.289612%, 79.219055%, 40.388489%)" d="M 565.886719 204.3125 C 560.765625 191.183594 551.46875 180.6875 540.484375 174.839844 C 528.472656 168.457031 516.386719 168.546875 503.824219 172.417969 C 497.324219 174.421875 489.394531 178.160156 482.652344 175.894531 C 480.398438 175.128906 478.257812 173.300781 478.300781 170.195312 C 478.355469 166.65625 481.1875 167.460938 482.652344 169.425781 C 486.75 174.925781 480.519531 185.152344 477.84375 189.816406 C 474.421875 195.789062 470.210938 201.109375 465.5625 205.71875 C 454.875 216.320312 441.296875 222.722656 427.480469 223.5625 C 422.804688 223.847656 422.777344 232.636719 427.480469 232.347656 C 442.402344 231.4375 456.742188 224.96875 468.570312 213.984375 C 474.347656 208.621094 479.402344 202.3125 483.625 195.140625 C 487.832031 188.003906 492.777344 178.351562 490.664062 169.222656 C 488.925781 161.691406 481.257812 155.964844 475.214844 160.445312 C 469.316406 164.824219 470.148438 175.402344 474.765625 180.550781 C 480.679688 187.144531 489.890625 185.4375 497.023438 183.542969 C 505.234375 181.359375 513.171875 177.84375 521.699219 178.257812 C 537.824219 179.039062 552.757812 191.246094 559.59375 208.746094 C 561.585938 213.859375 567.875 209.40625 565.886719 204.3125 " fill-opacity="1" fill-rule="nonzero"/><path fill="rgb(94.509888%, 28.239441%, 36.859131%)" d="M 552.6875 149.851562 C 551.875 152.457031 551.0625 155.0625 550.257812 157.660156 C 549.5625 159.886719 551.023438 162.476562 552.800781 163.066406 C 554.847656 163.746094 556.59375 162.226562 557.285156 160 C 558.097656 157.394531 558.910156 154.792969 559.71875 152.1875 C 560.410156 149.96875 558.949219 147.371094 557.171875 146.785156 C 555.128906 146.109375 553.382812 147.621094 552.6875 149.851562 " fill-opacity="1" fill-rule="nonzero"/><path fill="rgb(94.509888%, 28.239441%, 36.859131%)" d="M 483.550781 332.019531 C 486.488281 324.128906 494.082031 316.636719 501.691406 319.636719 C 505.824219 321.265625 508.066406 326.15625 506.859375 331.179688 C 505.640625 336.273438 501.550781 339.117188 497.664062 340.726562 C 498.007812 341.261719 498.351562 341.800781 498.695312 342.339844 C 503.449219 331.984375 516.402344 334.5625 517.699219 346.523438 C 517.847656 347.90625 519.675781 347.921875 519.523438 346.523438 C 518.007812 332.585938 502.855469 328.753906 497.121094 341.230469 C 496.757812 342.023438 497.367188 343.167969 498.148438 342.84375 C 502.429688 341.074219 506.546875 338.105469 508.300781 332.828125 C 509.90625 328.003906 508.84375 322.75 505.398438 319.566406 C 496.96875 311.785156 485.613281 321.144531 481.976562 330.910156 C 481.5 332.1875 483.066406 333.308594 483.550781 332.019531 " fill-opacity="1" fill-rule="nonzero"/><path fill="rgb(6.269836%, 6.269836%, 12.159729%)" d="M 607.535156 307.558594 C 591.292969 331.21875 578.0625 357.71875 568.378906 386.117188 C 557.933594 416.722656 552.289062 448.941406 549.71875 481.8125 C 548.15625 501.800781 547.546875 521.871094 546.941406 541.921875 C 547.324219 541.570312 547.707031 541.214844 548.097656 540.863281 C 525.605469 534.824219 501.113281 547.929688 489.8125 572.140625 C 489.242188 573.375 490.816406 574.484375 491.390625 573.25 C 502.277344 549.917969 525.90625 537.152344 547.609375 542.984375 C 548.203125 543.140625 548.742188 542.660156 548.765625 541.921875 C 549.816406 507.175781 550.867188 472.183594 556.917969 438.070312 C 562.261719 407.945312 571.507812 378.859375 584.160156 352.09375 C 591.328125 336.9375 599.59375 322.558594 608.824219 309.113281 C 609.566406 308.03125 608.285156 306.46875 607.535156 307.558594 " fill-opacity="1" fill-rule="nonzero"/><path fill="rgb(6.269836%, 6.269836%, 12.159729%)" d="M 505.90625 378.269531 C 500.199219 435.699219 481.753906 493.078125 451.644531 538.433594 C 443.453125 550.769531 433.972656 561.894531 422.515625 569.753906 C 421.5 570.453125 422.417969 572.351562 423.441406 571.648438 C 443.964844 557.566406 458.394531 533.394531 470.378906 509.488281 C 483.203125 483.902344 493.089844 456.175781 499.722656 427.378906 C 503.4375 411.277344 506.082031 394.855469 507.726562 378.269531 C 507.867188 376.867188 506.046875 376.882812 505.90625 378.269531 " fill-opacity="1" fill-rule="nonzero"/><path fill="rgb(100%, 100%, 100%)" d="M 528.644531 160.835938 C 545.902344 159.007812 563.175781 168.714844 572.988281 185.949219 C 573.652344 187.109375 575.230469 186.011719 574.5625 184.84375 C 564.402344 166.996094 546.558594 156.742188 528.644531 158.640625 C 527.488281 158.761719 527.472656 160.960938 528.644531 160.835938 " fill-opacity="1" fill-rule="nonzero"/><path fill="rgb(100%, 100%, 100%)" d="M 479.769531 701.128906 L 393.328125 701.128906 L 409.089844 611.800781 L 495.535156 611.800781 L 479.769531 701.128906 " fill-opacity="1" fill-rule="nonzero"/><path fill="rgb(95.289612%, 86.669922%, 89.019775%)" d="M 518.933594 691.769531 L 450.753906 691.769531 L 463.1875 621.320312 L 531.367188 621.320312 L 518.933594 691.769531 " fill-opacity="1" fill-rule="nonzero"/><path fill="rgb(6.269836%, 6.269836%, 12.159729%)" d="M 466.183594 633.289062 C 466.980469 641.648438 471.054688 648.96875 477.0625 653.257812 C 482.089844 656.839844 491.574219 659.589844 495.910156 653.125 C 499.9375 647.113281 494.605469 640.183594 489.160156 643.5 C 482.703125 647.433594 485.417969 658.871094 488.101562 664.746094 C 492.113281 673.53125 499.484375 679.722656 507.699219 681.207031 C 508.851562 681.414062 509.34375 679.296875 508.1875 679.085938 C 501.5625 677.886719 495.535156 673.621094 491.527344 667.117188 C 489.703125 664.15625 488.292969 660.773438 487.542969 657.195312 C 486.621094 652.792969 486.664062 645.890625 491.410156 644.921875 C 494.203125 644.351562 496.285156 646.816406 495.121094 650.382812 C 494.113281 653.460938 491.191406 654.386719 488.730469 654.621094 C 485.410156 654.9375 482.027344 653.90625 479.078125 652.09375 C 473.117188 648.433594 468.773438 641.328125 468.003906 633.289062 C 467.875 631.902344 466.050781 631.886719 466.183594 633.289062 " fill-opacity="1" fill-rule="nonzero"/><path fill="rgb(6.269836%, 6.269836%, 12.159729%)" d="M 424.914062 653.414062 C 433.421875 653.414062 441.933594 653.414062 450.441406 653.414062 C 451.617188 653.414062 451.617188 651.21875 450.441406 651.21875 C 441.933594 651.21875 433.421875 651.21875 424.914062 651.21875 C 423.738281 651.21875 423.738281 653.414062 424.914062 653.414062 " fill-opacity="1" fill-rule="nonzero"/><path fill="rgb(6.269836%, 6.269836%, 12.159729%)" d="M 430.585938 661.226562 C 438.285156 661.226562 445.988281 661.226562 453.6875 661.226562 C 454.859375 661.226562 454.863281 659.027344 453.6875 659.027344 C 445.988281 659.027344 438.285156 659.027344 430.585938 659.027344 C 429.417969 659.027344 429.414062 661.226562 430.585938 661.226562 " fill-opacity="1" fill-rule="nonzero"/><path fill="rgb(94.898987%, 67.059326%, 78.039551%)" d="M 297.273438 566.410156 C 321.140625 567.644531 345.007812 568.878906 368.878906 570.117188 L 358.039062 672.527344 L 307.800781 672.527344 C 304.289062 637.152344 300.785156 601.78125 297.273438 566.410156 " fill-opacity="1" fill-rule="nonzero"/><path fill="rgb(6.269836%, 6.269836%, 12.159729%)" d="M 308.824219 672.574219 C 325.03125 672.574219 341.238281 672.574219 357.449219 672.574219 C 358.621094 672.574219 358.625 670.375 357.449219 670.375 C 341.238281 670.375 325.03125 670.375 308.824219 670.375 C 307.648438 670.375 307.648438 672.574219 308.824219 672.574219 " fill-opacity="1" fill-rule="nonzero"/><path fill="rgb(65.098572%, 64.709473%, 85.488892%)" d="M 316.265625 508.152344 C 322 528.011719 327.738281 547.867188 333.476562 567.726562 C 335.007812 573.03125 342.058594 570.75 340.507812 565.390625 C 334.769531 545.53125 329.035156 525.671875 323.296875 505.816406 C 321.761719 500.511719 314.714844 502.789062 316.265625 508.152344 " fill-opacity="1" fill-rule="nonzero"/><path fill="rgb(65.098572%, 64.709473%, 85.488892%)" d="M 267.886719 499.636719 C 285.511719 522.578125 303.136719 545.523438 320.761719 568.46875 C 323.957031 572.625 329.101562 566.402344 325.914062 562.257812 C 308.292969 539.3125 290.671875 516.367188 273.046875 493.421875 C 269.847656 489.265625 264.699219 495.492188 267.886719 499.636719 " fill-opacity="1" fill-rule="nonzero"/><path fill="rgb(65.098572%, 64.709473%, 85.488892%)" d="M 268.867188 623.335938 C 245.257812 635.296875 221.652344 647.261719 198.042969 659.222656 C 196.214844 660.148438 194.949219 662.117188 195.496094 664.628906 C 195.949219 666.695312 198.167969 668.617188 199.984375 667.695312 C 223.589844 655.734375 247.199219 643.769531 270.804688 631.804688 C 272.632812 630.878906 273.902344 628.910156 273.351562 626.402344 C 272.898438 624.335938 270.679688 622.414062 268.867188 623.335938 " fill-opacity="1" fill-rule="nonzero"/><path fill="rgb(65.098572%, 64.709473%, 85.488892%)" d="M 202.890625 662.472656 C 199.550781 652.671875 189.210938 649.535156 183.242188 658.164062 C 180.800781 661.6875 179.636719 666.179688 176.957031 669.484375 C 173.988281 673.144531 170.195312 675.117188 166.027344 675.796875 C 166.964844 678.476562 167.898438 681.152344 168.835938 683.828125 C 172.804688 680.355469 177.515625 682.59375 181.695312 684.328125 C 185.777344 686.019531 189.917969 687.507812 194.261719 686.59375 C 197.785156 685.851562 201.15625 683.574219 203 679.785156 C 205.429688 674.792969 204.199219 668.933594 202.628906 663.886719 C 201 658.640625 193.945312 660.914062 195.597656 666.226562 C 196.636719 669.5625 198.527344 674.648438 195.261719 677.007812 C 192.335938 679.125 188.703125 677.871094 185.710938 676.710938 C 179.023438 674.117188 171.535156 670.660156 165.15625 676.242188 C 161.683594 679.277344 163.859375 684.945312 167.964844 684.273438 C 174.203125 683.246094 179.972656 679.226562 183.851562 673.261719 C 185.671875 670.472656 186.683594 667.09375 188.464844 664.308594 C 190.394531 661.285156 194.453125 660.683594 195.859375 664.808594 C 197.617188 669.964844 204.675781 667.707031 202.890625 662.472656 " fill-opacity="1" fill-rule="nonzero"/><path fill="rgb(100%, 100%, 100%)" d="M 194.550781 391.785156 C 243.582031 391.785156 292.613281 391.785156 341.644531 391.785156 C 342.820312 391.785156 342.820312 389.585938 341.644531 389.585938 C 292.613281 389.585938 243.582031 389.585938 194.550781 389.585938 C 193.378906 389.585938 193.378906 391.785156 194.550781 391.785156 " fill-opacity="1" fill-rule="nonzero"/><g clip-path="url(#id12)"><g clip-path="url(#id13)"><g clip-path="url(#id14)"><g clip-path="url(#id15)"><path fill="rgb(1.568604%, 2.349854%, 2.349854%)" d="M 674.65625 98.710938 C 674.949219 98.828125 675.21875 98.972656 675.472656 99.136719 C 676.035156 99.5 676.800781 99.992188 677.101562 100.710938 C 677.671875 100.476562 678.421875 100.203125 679.28125 99.976562 C 679.152344 99.957031 679.023438 99.9375 678.890625 99.910156 C 678.878906 99.910156 678.839844 99.898438 678.828125 99.898438 C 678.433594 99.792969 678.171875 99.410156 678.195312 99.011719 C 677.027344 98.777344 675.84375 98.675781 674.65625 98.710938 Z M 674.835938 101.429688 C 674.890625 101.527344 674.9375 101.625 674.976562 101.722656 C 675.015625 101.703125 675.058594 101.679688 675.101562 101.660156 C 675.042969 101.609375 674.867188 101.457031 674.835938 101.429688 Z M 667.792969 100.878906 C 667.667969 100.757812 667.574219 100.609375 667.515625 100.445312 C 667.40625 100.492188 667.296875 100.539062 667.191406 100.585938 C 667.390625 100.683594 667.589844 100.78125 667.792969 100.878906 Z M 668.40625 101.183594 C 669 101.484375 669.59375 101.804688 670.167969 102.152344 L 670.371094 102.277344 C 670.949219 102.625 671.585938 103.011719 672.066406 103.535156 C 672.386719 103.304688 672.714844 103.082031 673.046875 102.863281 C 672.980469 102.796875 672.914062 102.734375 672.847656 102.671875 C 672.484375 102.316406 672.140625 101.980469 671.699219 101.777344 C 671.375 101.625 671.035156 101.503906 670.6875 101.410156 C 670.054688 101.242188 669.367188 101.171875 668.644531 101.195312 C 668.5625 101.199219 668.480469 101.195312 668.40625 101.183594 Z M 714.410156 110.800781 C 714.566406 112.472656 714.582031 114.183594 714.457031 115.917969 C 715.109375 114.9375 715.738281 113.910156 716.199219 112.800781 C 716.398438 112.320312 716.867188 112.085938 717.359375 112.21875 C 717.589844 112.277344 717.800781 112.414062 717.953125 112.597656 C 717.933594 112.53125 717.914062 112.46875 717.894531 112.402344 C 716.425781 107.492188 713.921875 102.890625 710.671875 99.039062 C 712.042969 101.378906 713.074219 103.933594 713.722656 106.625 C 713.925781 106.46875 714.199219 106.414062 714.480469 106.488281 C 714.910156 106.601562 715.3125 107.023438 715.207031 107.578125 C 714.992188 108.742188 714.722656 109.828125 714.410156 110.800781 Z M 668.246094 103.796875 C 668.789062 104.324219 669.300781 104.9375 669.585938 105.621094 C 669.765625 105.441406 669.957031 105.261719 670.160156 105.082031 C 669.851562 104.890625 669.558594 104.679688 669.265625 104.476562 C 668.914062 104.222656 668.574219 103.984375 668.246094 103.796875 Z M 663.542969 103.523438 C 664.429688 104.003906 665.253906 104.539062 666 105.125 L 666.011719 105.136719 C 665.886719 105.011719 665.761719 104.890625 665.632812 104.785156 C 664.890625 104.167969 664.214844 103.761719 663.542969 103.523438 Z M 659.683594 104.671875 C 658.699219 105.417969 658.082031 106.121094 657.835938 106.769531 C 659.203125 106.691406 660.589844 106.835938 661.886719 107.03125 C 661.257812 106.476562 660.609375 105.898438 660.035156 105.265625 C 659.84375 105.054688 659.75 104.851562 659.683594 104.671875 Z M 710.21875 129.960938 C 709.859375 130.605469 709.476562 131.234375 709.074219 131.847656 C 709.21875 131.757812 709.363281 131.667969 709.5 131.578125 C 711.679688 130.164062 713.914062 128.765625 716.078125 127.414062 L 716.359375 127.238281 C 716.621094 127.074219 716.917969 127.023438 717.203125 127.097656 C 717.496094 127.175781 717.75 127.382812 717.894531 127.652344 C 719.320312 123.277344 719.4375 118.332031 718.191406 113.46875 C 718.179688 113.546875 718.15625 113.621094 718.125 113.695312 C 716.894531 116.8125 715.480469 119.046875 713.800781 120.523438 C 713.734375 120.832031 713.664062 121.140625 713.585938 121.449219 C 713.730469 121.304688 713.875 121.160156 714.019531 121.011719 C 714.992188 120 715.820312 119.027344 716.542969 118.042969 C 716.804688 117.6875 717.207031 117.535156 717.609375 117.644531 C 717.976562 117.742188 718.285156 118.03125 718.417969 118.40625 C 718.546875 118.765625 718.492188 119.148438 718.265625 119.460938 C 717.492188 120.527344 716.632812 121.652344 715.6875 122.671875 C 715.792969 122.667969 715.898438 122.679688 716 122.707031 C 716.410156 122.816406 716.742188 123.136719 716.84375 123.527344 C 716.9375 123.878906 716.828125 124.234375 716.546875 124.507812 L 716.140625 124.898438 C 714.382812 126.601562 712.394531 128.527344 710.21875 129.960938 Z M 704.75 137.136719 C 704.554688 137.332031 704.351562 137.527344 704.148438 137.71875 C 704.53125 137.625 704.910156 137.527344 705.277344 137.429688 C 706.308594 137.148438 707.25 136.914062 708.160156 136.714844 L 708.40625 136.605469 C 708.597656 136.527344 708.785156 136.441406 708.96875 136.355469 C 712.023438 134.914062 714.273438 133.464844 716.046875 131.800781 C 716.53125 130.96875 716.957031 130.097656 717.328125 129.203125 C 716.214844 129.941406 715.105469 130.6875 714 131.429688 C 712.941406 132.140625 711.882812 132.851562 710.820312 133.558594 C 710.363281 133.863281 709.90625 134.195312 709.425781 134.550781 C 707.964844 135.617188 706.457031 136.722656 704.75 137.136719 Z M 699.410156 141.375 C 699.175781 141.523438 698.941406 141.664062 698.707031 141.804688 C 700.011719 141.699219 701.144531 141.53125 702.230469 141.28125 C 702.667969 141.183594 703.101562 141.078125 703.519531 140.964844 C 703.246094 140.957031 702.980469 140.925781 702.71875 140.867188 C 702.640625 140.847656 702.570312 140.820312 702.507812 140.789062 C 701.582031 141.046875 700.515625 141.304688 699.410156 141.375 Z M 678 146.578125 C 677.289062 146.722656 676.628906 146.890625 676.007812 147.082031 C 672.886719 148.050781 670.980469 149.582031 670.015625 151.910156 C 669.898438 152.195312 669.785156 152.488281 669.675781 152.800781 C 670.230469 152.328125 670.851562 151.910156 671.433594 151.519531 C 671.691406 151.347656 671.941406 151.179688 672.171875 151.015625 C 672.363281 150.882812 672.597656 150.683594 672.851562 150.476562 C 673.753906 149.726562 674.875 148.792969 675.890625 148.875 C 675.9375 148.878906 675.984375 148.886719 676.027344 148.898438 C 676.171875 148.9375 676.292969 149.015625 676.375 149.121094 C 676.734375 148.441406 677.128906 147.792969 677.558594 147.175781 C 677.671875 147.015625 677.820312 146.8125 678 146.578125 Z M 673.953125 155.722656 C 674.03125 155.746094 674.101562 155.773438 674.167969 155.808594 C 674.1875 155.703125 674.207031 155.597656 674.226562 155.488281 C 674.101562 155.554688 673.980469 155.628906 673.863281 155.703125 C 673.894531 155.710938 673.925781 155.714844 673.953125 155.722656 Z M 668.875 155.632812 C 668.746094 156.171875 668.628906 156.71875 668.507812 157.25 C 668.453125 157.503906 668.398438 157.753906 668.339844 158.007812 L 668.625 157.898438 C 668.875 157.417969 669.367188 156.960938 670.097656 156.527344 C 670.386719 155.722656 671.144531 155.070312 671.84375 154.515625 C 672.753906 153.789062 673.761719 153.242188 674.84375 152.882812 C 675.003906 152.355469 675.179688 151.835938 675.375 151.328125 C 674.960938 151.675781 674.492188 151.992188 674.066406 152.28125 C 673.804688 152.457031 673.558594 152.621094 673.390625 152.757812 C 673.109375 152.976562 672.824219 153.21875 672.53125 153.46875 C 671.566406 154.292969 670.46875 155.226562 669.257812 155.605469 C 669.128906 155.644531 669 155.652344 668.875 155.632812 Z M 652.859375 157.796875 C 653.039062 157.859375 653.226562 157.917969 653.421875 157.96875 C 655.496094 158.519531 658.023438 158.429688 660.054688 158.359375 L 660.269531 158.355469 C 661.566406 158.308594 662.855469 158.234375 664.109375 158.125 C 664.3125 158.105469 664.519531 158.074219 664.730469 158.042969 C 664.886719 158.015625 665.050781 157.992188 665.214844 157.972656 C 665.316406 157.542969 665.414062 157.105469 665.511719 156.660156 C 666.449219 152.5 667.507812 147.785156 671.75 145.558594 C 675.15625 143.765625 678.964844 143.292969 682.574219 142.964844 C 683.167969 142.777344 683.738281 142.726562 684.269531 142.816406 L 685.085938 142.742188 C 686.347656 142.628906 687.621094 142.441406 688.875 142.1875 C 689.03125 142.105469 689.203125 142.058594 689.378906 142.050781 L 689.582031 142.039062 C 695.8125 140.632812 700.90625 137.515625 704.722656 132.761719 C 705.140625 132.242188 705.550781 131.691406 705.949219 131.117188 C 705.855469 130.855469 705.902344 130.558594 706.097656 130.335938 C 706.378906 130.019531 706.695312 129.703125 707.066406 129.378906 C 709.542969 125.230469 711.054688 120.558594 711.46875 115.796875 C 711.328125 115.839844 711.179688 115.84375 711.03125 115.804688 C 710.628906 115.695312 710.390625 115.3125 710.484375 114.910156 C 710.703125 113.957031 711.03125 112.953125 711.535156 111.667969 C 711.128906 104.097656 707.746094 97.683594 702 93.605469 C 697.480469 90.398438 692.273438 87.953125 686.9375 86.539062 C 681.023438 84.96875 675.183594 84.757812 670.050781 85.921875 C 666.035156 86.832031 652.792969 90.632812 649.601562 101.496094 C 652.25 102.632812 654.210938 103.808594 655.84375 105.238281 C 656.417969 104.105469 657.566406 102.933594 659.273438 101.757812 C 662.113281 99.796875 665.410156 98.136719 668.816406 96.953125 C 672.375 95.71875 676.375 95.582031 680.085938 96.566406 C 684.109375 97.632812 687.625 99.972656 689.988281 103.15625 C 694.679688 109.476562 695.804688 119.613281 689.5625 125.632812 C 685.101562 129.933594 679.128906 131.738281 673.351562 133.480469 C 671.738281 133.96875 670.066406 134.472656 668.480469 135.019531 C 663.414062 136.765625 659.601562 139.636719 657.152344 143.550781 C 655.664062 145.929688 654.609375 148.351562 654.023438 150.746094 C 653.683594 152.128906 653.488281 153.558594 653.296875 154.945312 C 653.167969 155.878906 653.035156 156.84375 652.859375 157.796875 Z M 653.992188 160.425781 C 652.988281 160.160156 652.089844 159.785156 651.25 159.28125 C 650.996094 159.132812 650.824219 158.894531 650.769531 158.625 C 650.519531 158.414062 650.351562 158.128906 650.296875 157.804688 C 649.386719 152.460938 651.851562 146.84375 652.953125 144.675781 C 654.585938 141.464844 657.558594 137.066406 662.453125 134.34375 C 665.402344 132.699219 668.667969 131.730469 671.824219 130.792969 C 672.492188 130.59375 673.160156 130.398438 673.824219 130.195312 C 682.058594 127.664062 690.160156 124.507812 690.882812 116.3125 C 691.316406 111.382812 689.542969 106.589844 686.011719 103.148438 C 685.753906 103.066406 685.5 102.976562 685.253906 102.886719 C 684.753906 102.710938 684.28125 102.546875 683.800781 102.417969 C 682.96875 102.199219 682.277344 102.136719 681.546875 102.222656 C 679.800781 102.421875 678.019531 103.039062 676.257812 104.046875 C 674.839844 104.855469 673.53125 105.882812 672.265625 106.875 C 671.449219 107.511719 670.613281 108.171875 669.742188 108.773438 C 669.910156 108.910156 670.054688 109.058594 670.179688 109.222656 C 670.320312 109.417969 670.375 109.660156 670.332031 109.910156 C 670.289062 110.167969 670.140625 110.394531 669.929688 110.535156 C 668.914062 111.210938 667.519531 110.96875 666.292969 110.640625 C 665.964844 110.554688 665.640625 110.457031 665.332031 110.367188 C 665.050781 110.285156 664.785156 110.203125 664.535156 110.136719 C 664.390625 110.101562 664.253906 110.066406 664.125 110.039062 C 662.820312 109.765625 661.476562 109.554688 660.179688 109.355469 C 659.066406 109.179688 657.917969 109.003906 656.792969 108.78125 C 656.785156 108.78125 656.761719 108.773438 656.753906 108.773438 C 656.636719 108.773438 656.519531 108.761719 656.410156 108.730469 C 656.257812 108.691406 656.121094 108.625 656 108.535156 C 655.9375 108.527344 655.878906 108.519531 655.816406 108.5 C 655.617188 108.449219 655.433594 108.339844 655.269531 108.183594 C 652.917969 105.921875 649.910156 104.628906 647.28125 103.660156 C 646.636719 103.421875 646.363281 102.660156 646.46875 102.058594 C 648.375 91.417969 660.558594 84.246094 671.609375 82.660156 C 676.609375 81.945312 682.171875 82.339844 687.699219 83.804688 C 688.019531 83.890625 688.335938 83.980469 688.652344 84.070312 C 689.640625 84.273438 690.65625 84.511719 691.640625 84.769531 C 696.78125 86.132812 701.40625 88.207031 705.386719 90.933594 C 713.308594 96.367188 719.011719 104.496094 721.03125 113.242188 C 723.347656 123.292969 720.917969 132.707031 714.53125 138.417969 C 711.253906 141.34375 707.089844 143.347656 702.484375 144.210938 C 697.996094 145.054688 694.433594 145.257812 691.285156 144.851562 C 690.769531 144.984375 690.300781 145.085938 689.859375 145.175781 C 687.917969 145.554688 685.910156 145.710938 683.96875 145.863281 C 683.449219 145.90625 682.925781 145.945312 682.402344 145.992188 C 682.199219 146.089844 682.039062 146.1875 681.894531 146.300781 C 680.785156 147.140625 679.808594 148.300781 678.984375 149.746094 C 677.765625 151.890625 676.738281 154.1875 675.996094 156.417969 C 676.195312 156.476562 676.382812 156.550781 676.558594 156.644531 C 676.832031 156.792969 677.007812 157.066406 677.023438 157.378906 C 677.039062 157.6875 676.898438 157.972656 676.640625 158.144531 C 675.71875 158.765625 674.550781 158.921875 673.421875 159.070312 C 672.871094 159.140625 672.355469 159.210938 671.882812 159.328125 C 670.417969 159.695312 668.847656 160.097656 667.300781 160.527344 C 666.9375 160.746094 666.472656 160.808594 666.035156 160.695312 C 666.027344 160.691406 666.019531 160.6875 666.011719 160.6875 C 665.5 160.796875 664.964844 160.804688 664.445312 160.8125 C 664.207031 160.8125 663.972656 160.816406 663.742188 160.832031 C 662.300781 160.914062 660.761719 160.996094 659.207031 160.976562 C 657.601562 160.953125 655.742188 160.890625 653.992188 160.425781 " fill-opacity="1" fill-rule="nonzero"/></g></g></g></g><g clip-path="url(#id16)"><g clip-path="url(#id17)"><g clip-path="url(#id18)"><g clip-path="url(#id19)"><path fill="rgb(1.568604%, 2.349854%, 2.349854%)" d="M 654.355469 178.390625 C 656.277344 178.902344 658.144531 179.644531 659.953125 180.359375 C 660.535156 180.589844 661.109375 180.816406 661.664062 181.027344 C 662.265625 180.667969 662.859375 180.265625 663.433594 179.878906 C 663.90625 179.558594 664.390625 179.230469 664.882812 178.921875 C 665.035156 178.828125 665.199219 178.71875 665.367188 178.609375 C 665.65625 178.417969 665.972656 178.210938 666.304688 178.015625 C 665.480469 177.960938 664.65625 177.917969 663.847656 177.871094 C 661.523438 177.742188 659.121094 177.613281 656.777344 177.253906 C 655.824219 177.109375 654.808594 176.949219 653.820312 176.691406 C 653.4375 176.589844 652.914062 176.882812 652.453125 177.140625 C 652.285156 177.234375 652.121094 177.328125 651.96875 177.398438 C 651.683594 177.53125 651.398438 177.671875 651.113281 177.808594 C 652.117188 177.890625 653.191406 178.082031 654.355469 178.390625 Z M 662.679688 184.949219 C 662.667969 185.179688 662.652344 185.417969 662.636719 185.664062 L 662.703125 185.613281 C 663.550781 184.941406 664.488281 184.328125 665.558594 183.746094 C 665.734375 183.003906 665.960938 182.148438 666.28125 181.296875 C 665.652344 182.753906 664.324219 183.722656 663.246094 184.507812 C 663.058594 184.644531 662.871094 184.792969 662.679688 184.949219 Z M 664.238281 190.058594 C 664.046875 190.253906 663.851562 190.453125 663.664062 190.644531 C 663.429688 190.878906 663.195312 191.121094 662.957031 191.359375 C 663.128906 191.289062 663.304688 191.222656 663.476562 191.152344 L 663.898438 190.988281 C 663.96875 190.960938 664.039062 190.9375 664.113281 190.925781 C 664.148438 190.648438 664.1875 190.359375 664.238281 190.058594 Z M 663.984375 193.28125 C 663.585938 193.503906 663.164062 193.78125 662.714844 194.117188 C 662.523438 194.257812 662.339844 194.441406 662.140625 194.636719 C 662.015625 194.757812 661.890625 194.886719 661.757812 195.007812 C 662.105469 194.867188 662.441406 194.722656 662.765625 194.550781 C 663.023438 194.417969 663.300781 194.382812 663.570312 194.457031 C 663.808594 194.519531 664.019531 194.660156 664.171875 194.847656 C 664.066406 194.367188 664.003906 193.847656 663.984375 193.28125 Z M 645.730469 196.152344 C 646.222656 196.480469 646.820312 196.738281 647.558594 196.933594 C 648.878906 197.28125 650.351562 197.363281 651.652344 197.429688 L 651.984375 197.449219 C 654.289062 197.578125 656.367188 197.597656 658.3125 197.507812 C 658.28125 197.246094 658.324219 196.984375 658.433594 196.761719 C 658.59375 195.34375 658.765625 193.925781 658.941406 192.507812 C 659.175781 190.609375 659.417969 188.648438 659.617188 186.710938 C 659.5625 186.71875 659.503906 186.726562 659.449219 186.730469 C 659.359375 186.738281 659.265625 186.730469 659.179688 186.710938 C 658.796875 186.609375 658.546875 186.214844 658.601562 185.796875 C 658.71875 184.882812 659.347656 184.242188 659.875 183.816406 C 659.875 183.816406 659.910156 183.386719 659.921875 183.222656 C 658.03125 182.34375 655.605469 181.292969 653.164062 180.644531 C 650.964844 180.0625 649.011719 179.878906 647.355469 180.105469 C 647.605469 181.652344 647.316406 183.515625 647.082031 185.039062 C 647.019531 185.441406 646.960938 185.816406 646.921875 186.148438 C 646.847656 186.714844 646.769531 187.285156 646.6875 187.851562 C 646.511719 189.101562 646.328125 190.398438 646.257812 191.671875 C 646.238281 192.0625 646.25 192.46875 646.265625 192.898438 C 646.292969 193.8125 646.324219 194.761719 646.019531 195.636719 C 645.949219 195.824219 645.835938 195.992188 645.691406 196.125 C 645.707031 196.132812 645.71875 196.140625 645.730469 196.152344 Z M 646.914062 199.84375 C 645.457031 199.460938 644.566406 198.929688 644.191406 198.230469 C 643.964844 197.804688 643.941406 197.332031 644.113281 196.832031 C 644.179688 196.644531 644.292969 196.464844 644.441406 196.320312 C 644.289062 196.234375 644.160156 196.105469 644.0625 195.941406 C 642.878906 193.96875 643.472656 190.867188 643.945312 188.375 C 644.042969 187.863281 644.132812 187.382812 644.203125 186.957031 C 644.265625 186.546875 644.332031 186.140625 644.398438 185.734375 C 644.601562 184.492188 644.8125 183.210938 644.925781 181.941406 C 644.957031 181.609375 644.957031 181.261719 644.960938 180.898438 C 644.964844 180.570312 644.964844 180.230469 644.992188 179.894531 C 644.921875 179.738281 644.898438 179.570312 644.929688 179.410156 C 644.957031 179.277344 645.019531 179.15625 645.109375 179.058594 C 645.167969 178.789062 645.246094 178.546875 645.347656 178.328125 C 645.496094 178.007812 645.839844 177.851562 646.183594 177.941406 C 646.207031 177.949219 646.226562 177.953125 646.246094 177.960938 C 646.304688 177.882812 646.375 177.808594 646.457031 177.746094 C 647.554688 176.914062 648.769531 176.246094 649.949219 175.597656 C 650.648438 175.214844 651.371094 174.816406 652.050781 174.390625 C 653.246094 173.648438 654.359375 173.914062 655.433594 174.171875 C 655.800781 174.257812 656.183594 174.347656 656.578125 174.40625 C 658.605469 174.695312 660.691406 174.820312 662.710938 174.941406 C 664.734375 175.0625 666.824219 175.1875 668.878906 175.476562 C 668.941406 175.484375 669.003906 175.496094 669.058594 175.515625 C 669.613281 175.660156 669.96875 176.105469 669.980469 176.671875 C 669.988281 177.046875 669.847656 177.40625 669.613281 177.679688 C 669.6875 177.761719 669.742188 177.855469 669.785156 177.953125 C 669.882812 178.203125 669.863281 178.46875 669.726562 178.699219 C 669.484375 179.121094 669.113281 179.488281 668.574219 179.839844 C 668.582031 179.886719 668.585938 179.929688 668.585938 179.976562 C 668.605469 181.910156 668.136719 183.890625 667.683594 185.808594 C 667.4375 186.863281 667.179688 187.953125 667.015625 188.988281 C 666.785156 190.460938 666.5 192.289062 666.632812 194.015625 C 666.636719 194.074219 666.640625 194.140625 666.640625 194.214844 C 666.910156 194.1875 667.160156 194.207031 667.386719 194.269531 C 667.570312 194.316406 667.738281 194.390625 667.894531 194.492188 C 668.261719 194.730469 668.398438 195.132812 668.242188 195.546875 C 667.945312 196.34375 667.238281 196.65625 666.609375 196.929688 C 666.464844 196.992188 666.316406 197.058594 666.175781 197.128906 C 665.429688 197.507812 664.683594 197.921875 663.898438 198.40625 C 662.488281 199.273438 661.03125 200.015625 659.441406 200.679688 C 659.261719 200.753906 659.066406 200.769531 658.882812 200.722656 C 658.734375 200.683594 658.601562 200.605469 658.488281 200.496094 C 657.066406 200.570312 650.648438 200.835938 646.914062 199.84375 " fill-opacity="1" fill-rule="nonzero"/></g></g></g></g><g clip-path="url(#id20)"><g clip-path="url(#id21)"><g clip-path="url(#id22)"><g clip-path="url(#id23)"><path fill="rgb(1.568604%, 2.349854%, 2.349854%)" d="M 677.601562 100.683594 C 677.445312 100.644531 677.316406 100.546875 677.234375 100.410156 C 677.183594 100.324219 677.136719 100.238281 677.09375 100.152344 C 677.058594 100.085938 677.023438 100.023438 676.988281 99.960938 C 676.964844 99.964844 676.9375 99.96875 676.90625 99.976562 C 676.742188 100.011719 676.585938 100.011719 676.433594 99.972656 C 676.035156 99.867188 675.769531 99.496094 675.785156 99.070312 C 675.800781 98.640625 676.117188 98.296875 676.566406 98.214844 C 676.804688 98.175781 677.164062 98.128906 677.519531 98.222656 C 677.726562 98.277344 677.914062 98.375 678.074219 98.511719 C 678.589844 98.957031 678.574219 99.769531 678.339844 100.335938 C 678.222656 100.617188 677.90625 100.765625 677.601562 100.683594 " fill-opacity="1" fill-rule="nonzero"/></g></g></g></g></svg>