<svg xmlns="http://www.w3.org/2000/svg" xmlns:xlink="http://www.w3.org/1999/xlink" width="1080" zoomAndPan="magnify" viewBox="0 0 810 809.999993" height="1080" preserveAspectRatio="xMidYMid meet" version="1.0"><defs><clipPath id="id1"><path d="M 626 688 L 660 688 L 660 705.429688 L 626 705.429688 Z M 626 688 " clip-rule="nonzero"/></clipPath><clipPath id="id2"><path d="M 717 623 L 729.339844 623 L 729.339844 677 L 717 677 Z M 717 623 " clip-rule="nonzero"/></clipPath><clipPath id="id3"><path d="M 597 454 L 729.339844 454 L 729.339844 693 L 597 693 Z M 597 454 " clip-rule="nonzero"/></clipPath></defs><g clip-path="url(#id1)"><path fill="rgb(24.708557%, 39.99939%, 72.938538%)" d="M 635.0625 691.613281 C 632.058594 696.222656 629.058594 700.832031 626.054688 705.445312 L 659.472656 688.332031 C 651.335938 689.425781 643.199219 690.515625 635.0625 691.613281 " fill-opacity="1" fill-rule="nonzero"/></g><g clip-path="url(#id2)"><path fill="rgb(24.708557%, 39.99939%, 72.938538%)" d="M 717.480469 656.65625 C 718.117188 663.296875 718.746094 669.9375 719.378906 676.574219 C 722.6875 659.023438 726.003906 641.472656 729.316406 623.921875 C 725.367188 634.832031 721.425781 645.746094 717.480469 656.65625 " fill-opacity="1" fill-rule="nonzero"/></g><path fill="rgb(6.269836%, 6.269836%, 12.159729%)" d="M 204.8125 688.332031 L 571.75 688.332031 C 574.878906 688.332031 577.4375 684.28125 577.4375 679.320312 L 577.4375 665.40625 C 577.4375 660.449219 574.878906 656.394531 571.75 656.394531 L 204.8125 656.394531 C 201.683594 656.394531 199.125 660.449219 199.125 665.40625 L 199.125 679.320312 C 199.125 684.28125 201.683594 688.332031 204.8125 688.332031 " fill-opacity="1" fill-rule="nonzero"/><path fill="rgb(6.269836%, 6.269836%, 12.159729%)" d="M 210.359375 656.394531 L 449.882812 656.394531 C 454.808594 656.394531 457.980469 650.007812 456.933594 642.199219 L 411.414062 302.6875 C 410.367188 294.878906 405.480469 288.488281 400.554688 288.488281 L 161.03125 288.488281 C 156.109375 288.488281 152.933594 294.878906 153.980469 302.6875 L 199.5 642.199219 C 200.546875 650.007812 205.433594 656.394531 210.359375 656.394531 " fill-opacity="1" fill-rule="nonzero"/><path fill="rgb(65.098572%, 64.709473%, 85.488892%)" d="M 217.441406 638.832031 L 439.121094 638.832031 C 443.679688 638.832031 446.617188 632.921875 445.648438 625.691406 L 403.519531 311.46875 C 402.554688 304.246094 398.027344 298.335938 393.46875 298.335938 L 171.789062 298.335938 C 167.234375 298.335938 164.296875 304.246094 165.265625 311.46875 L 207.394531 625.691406 C 208.363281 632.921875 212.882812 638.832031 217.441406 638.832031 " fill-opacity="1" fill-rule="nonzero"/><path fill="rgb(24.708557%, 39.99939%, 72.938538%)" d="M 345.324219 555.726562 L 503.65625 555.726562 C 506.910156 555.726562 509.011719 551.507812 508.316406 546.347656 L 478.226562 321.917969 C 477.535156 316.757812 474.308594 312.53125 471.050781 312.53125 L 312.71875 312.53125 C 309.460938 312.53125 307.367188 316.757812 308.054688 321.917969 L 338.144531 546.347656 C 338.835938 551.507812 342.066406 555.726562 345.324219 555.726562 " fill-opacity="1" fill-rule="nonzero"/><path fill="rgb(100%, 100%, 100%)" d="M 340.078125 592.628906 L 430.804688 592.628906 C 432.671875 592.628906 433.871094 590.210938 433.476562 587.253906 L 416.234375 458.652344 C 415.839844 455.691406 413.984375 453.273438 412.121094 453.273438 L 321.390625 453.273438 C 319.527344 453.273438 318.324219 455.691406 318.722656 458.652344 L 335.960938 587.253906 C 336.359375 590.210938 338.210938 592.628906 340.078125 592.628906 " fill-opacity="1" fill-rule="nonzero"/><path fill="rgb(24.708557%, 39.99939%, 72.938538%)" d="M 455.699219 657.644531 C 423.242188 657.644531 390.78125 657.644531 358.320312 657.644531 C 325.863281 657.644531 293.402344 657.644531 260.945312 657.644531 C 242.667969 657.644531 224.390625 657.644531 206.113281 657.644531 C 204.28125 657.644531 204.28125 653.140625 206.113281 653.140625 C 238.570312 653.140625 271.03125 653.140625 303.488281 653.140625 C 335.949219 653.140625 368.40625 653.140625 400.863281 653.140625 C 419.140625 653.140625 437.421875 653.140625 455.699219 653.140625 C 457.527344 653.140625 457.53125 657.644531 455.699219 657.644531 " fill-opacity="1" fill-rule="nonzero"/><path fill="rgb(24.708557%, 39.99939%, 72.938538%)" d="M 186.730469 362.269531 C 217.820312 362.269531 248.910156 362.269531 280.003906 362.269531 C 280.917969 362.269531 280.917969 364.523438 280.003906 364.523438 C 248.910156 364.523438 217.820312 364.523438 186.730469 364.523438 C 185.8125 364.523438 185.8125 362.269531 186.730469 362.269531 " fill-opacity="1" fill-rule="nonzero"/><path fill="rgb(24.708557%, 39.99939%, 72.938538%)" d="M 188.222656 378.832031 C 220.804688 378.832031 253.390625 378.832031 285.972656 378.832031 C 286.886719 378.832031 286.886719 381.085938 285.972656 381.085938 C 253.390625 381.085938 220.804688 381.085938 188.222656 381.085938 C 187.308594 381.085938 187.304688 378.832031 188.222656 378.832031 " fill-opacity="1" fill-rule="nonzero"/><path fill="rgb(24.708557%, 39.99939%, 72.938538%)" d="M 191.207031 399.535156 C 223.789062 399.535156 256.375 399.535156 288.957031 399.535156 C 289.871094 399.535156 289.871094 401.785156 288.957031 401.785156 C 256.375 401.785156 223.789062 401.785156 191.207031 401.785156 C 190.292969 401.785156 190.289062 399.535156 191.207031 399.535156 " fill-opacity="1" fill-rule="nonzero"/><path fill="rgb(24.708557%, 39.99939%, 72.938538%)" d="M 194.5625 420.234375 C 227.148438 420.234375 259.730469 420.234375 292.3125 420.234375 C 293.226562 420.234375 293.230469 422.488281 292.3125 422.488281 C 259.730469 422.488281 227.148438 422.488281 194.5625 422.488281 C 193.648438 422.488281 193.648438 420.234375 194.5625 420.234375 " fill-opacity="1" fill-rule="nonzero"/><path fill="rgb(24.708557%, 39.99939%, 72.938538%)" d="M 202.773438 478.203125 C 235.355469 478.203125 267.9375 478.203125 300.523438 478.203125 C 301.4375 478.203125 301.4375 480.453125 300.523438 480.453125 C 267.9375 480.453125 235.355469 480.453125 202.773438 480.453125 C 201.859375 480.453125 201.855469 478.203125 202.773438 478.203125 " fill-opacity="1" fill-rule="nonzero"/><path fill="rgb(24.708557%, 39.99939%, 72.938538%)" d="M 209.488281 526.898438 C 242.070312 526.898438 274.65625 526.898438 307.238281 526.898438 C 308.152344 526.898438 308.152344 529.152344 307.238281 529.152344 C 274.65625 529.152344 242.070312 529.152344 209.488281 529.152344 C 208.574219 529.152344 208.570312 526.898438 209.488281 526.898438 " fill-opacity="1" fill-rule="nonzero"/><path fill="rgb(24.708557%, 39.99939%, 72.938538%)" d="M 209.488281 545.039062 C 242.070312 545.039062 274.65625 545.039062 307.238281 545.039062 C 308.152344 545.039062 308.152344 547.292969 307.238281 547.292969 C 274.65625 547.292969 242.070312 547.292969 209.488281 547.292969 C 208.574219 547.292969 208.570312 545.039062 209.488281 545.039062 " fill-opacity="1" fill-rule="nonzero"/><path fill="rgb(6.269836%, 6.269836%, 12.159729%)" d="M 215.085938 600.042969 C 272.132812 600.042969 329.1875 600.042969 386.238281 600.042969 C 402.3125 600.042969 418.386719 600.042969 434.460938 600.042969 C 435.375 600.042969 435.378906 602.296875 434.460938 602.296875 C 377.410156 602.296875 320.359375 602.296875 263.308594 602.296875 C 247.234375 602.296875 231.160156 602.296875 215.085938 602.296875 C 214.167969 602.296875 214.167969 600.042969 215.085938 600.042969 " fill-opacity="1" fill-rule="nonzero"/><path fill="rgb(100%, 100%, 100%)" d="M 216.511719 673.28125 C 261.015625 673.28125 305.519531 673.28125 350.023438 673.28125 C 394.527344 673.28125 439.03125 673.28125 483.535156 673.28125 C 508.472656 673.28125 533.40625 673.28125 558.339844 673.28125 C 559.257812 673.28125 559.257812 675.53125 558.339844 675.53125 C 513.835938 675.53125 469.332031 675.53125 424.828125 675.53125 C 380.324219 675.53125 335.820312 675.53125 291.316406 675.53125 C 266.378906 675.53125 241.445312 675.53125 216.511719 675.53125 C 215.59375 675.53125 215.59375 673.28125 216.511719 673.28125 " fill-opacity="1" fill-rule="nonzero"/><path fill="rgb(95.289612%, 79.219055%, 40.388489%)" d="M 307.925781 390.730469 C 332.792969 390.730469 357.664062 390.730469 382.535156 390.730469 C 389.585938 390.730469 396.636719 390.730469 403.691406 390.730469 C 406.558594 390.730469 406.5625 383.660156 403.691406 383.660156 C 378.820312 383.660156 353.949219 383.660156 329.082031 383.660156 C 322.03125 383.660156 314.976562 383.660156 307.925781 383.660156 C 305.058594 383.660156 305.054688 390.730469 307.925781 390.730469 " fill-opacity="1" fill-rule="nonzero"/><path fill="rgb(95.289612%, 79.219055%, 40.388489%)" d="M 334.007812 437.660156 C 366.664062 437.660156 399.316406 437.660156 431.972656 437.660156 C 441.214844 437.660156 450.460938 437.660156 459.703125 437.660156 C 462.566406 437.660156 462.574219 430.597656 459.703125 430.597656 C 427.042969 430.597656 394.390625 430.597656 361.734375 430.597656 C 352.492188 430.597656 343.25 430.597656 334.007812 430.597656 C 331.140625 430.597656 331.136719 437.660156 334.007812 437.660156 " fill-opacity="1" fill-rule="nonzero"/><path fill="rgb(95.289612%, 79.219055%, 40.388489%)" d="M 169.914062 266.132812 L 172.246094 275.726562 C 174.074219 283.25 178.636719 288.210938 183.722656 288.210938 L 226.4375 288.210938 C 222.945312 290.972656 214.257812 298.761719 208.253906 315.296875 C 201.464844 334.003906 202.398438 352.066406 202.859375 357.96875 L 242.890625 357.96875 L 262.945312 285.207031 C 266.171875 273.503906 260.566406 260.484375 252.515625 260.984375 L 169.914062 266.132812 " fill-opacity="1" fill-rule="nonzero"/><path fill="rgb(94.898987%, 67.059326%, 78.039551%)" d="M 244.34375 230.332031 L 256.699219 208.230469 C 258.445312 211.285156 259.039062 215.523438 258.210938 219.257812 C 257.230469 223.6875 254.6875 225.398438 254.277344 225.660156 C 256.347656 225.863281 258.414062 226.0625 260.484375 226.261719 C 268.660156 227.054688 275.152344 237.476562 275.542969 250.449219 L 275.914062 262.675781 L 246.617188 262.675781 L 244.34375 230.332031 " fill-opacity="1" fill-rule="nonzero"/><path fill="rgb(95.289612%, 86.669922%, 89.019775%)" d="M 243.53125 210.335938 L 247.203125 262.679688 L 230.042969 262.679688 C 229.152344 245.210938 228.257812 227.75 227.367188 210.285156 C 232.753906 210.304688 238.144531 210.316406 243.53125 210.335938 " fill-opacity="1" fill-rule="nonzero"/><path fill="rgb(95.289612%, 86.669922%, 89.019775%)" d="M 147.058594 260.011719 L 132.546875 188.191406 C 130.832031 179.695312 134.058594 170.667969 139.488281 168.789062 L 205.382812 145.933594 C 209.558594 144.484375 213.816406 147.753906 215.734375 153.890625 L 242.804688 240.367188 C 245.824219 250.023438 241.742188 261.503906 235.035156 262.203125 L 156.585938 270.398438 C 152.304688 270.851562 148.382812 266.574219 147.058594 260.011719 " fill-opacity="1" fill-rule="nonzero"/><path fill="rgb(94.898987%, 67.059326%, 78.039551%)" d="M 191.472656 133.269531 C 193.921875 144.09375 190.371094 156.015625 183.539062 159.898438 C 176.714844 163.777344 169.191406 158.148438 166.746094 147.320312 C 164.296875 136.496094 167.847656 124.574219 174.675781 120.695312 C 181.503906 116.8125 189.027344 122.441406 191.472656 133.269531 " fill-opacity="1" fill-rule="nonzero"/><path fill="rgb(94.898987%, 67.059326%, 78.039551%)" d="M 169.617188 140.191406 C 170.839844 145.601562 169.0625 151.566406 165.648438 153.503906 C 162.238281 155.445312 158.476562 152.628906 157.25 147.21875 C 156.027344 141.800781 157.804688 135.84375 161.21875 133.902344 C 164.632812 131.960938 168.394531 134.777344 169.617188 140.191406 " fill-opacity="1" fill-rule="nonzero"/><path fill="rgb(94.509888%, 28.239441%, 36.859131%)" d="M 159.445312 140.761719 C 162.234375 142.648438 165.027344 144.535156 167.816406 146.417969 C 168.523438 146.898438 169.144531 145.246094 168.429688 144.761719 C 165.636719 142.875 162.847656 140.992188 160.054688 139.105469 C 159.347656 138.625 158.726562 140.277344 159.445312 140.761719 " fill-opacity="1" fill-rule="nonzero"/><path fill="rgb(94.509888%, 28.239441%, 36.859131%)" d="M 163.726562 142.855469 C 163.269531 145.214844 162.816406 147.570312 162.359375 149.929688 C 162.132812 151.113281 163.300781 151.625 163.53125 150.4375 C 163.984375 148.085938 164.441406 145.722656 164.894531 143.363281 C 165.125 142.179688 163.953125 141.675781 163.726562 142.855469 " fill-opacity="1" fill-rule="nonzero"/><path fill="rgb(6.269836%, 6.269836%, 12.159729%)" d="M 175.25 135.5625 C 175.292969 137.039062 175.234375 138.480469 175.039062 139.925781 C 174.714844 142.335938 177.050781 143.367188 177.378906 140.945312 C 177.617188 139.175781 177.730469 137.375 177.675781 135.5625 C 177.601562 133.09375 175.175781 133.082031 175.25 135.5625 " fill-opacity="1" fill-rule="nonzero"/><path fill="rgb(6.269836%, 6.269836%, 12.159729%)" d="M 184.523438 135.5625 C 184.566406 137.039062 184.507812 138.480469 184.3125 139.925781 C 183.988281 142.335938 186.324219 143.367188 186.652344 140.945312 C 186.894531 139.175781 187.003906 137.375 186.949219 135.5625 C 186.875 133.09375 184.449219 133.082031 184.523438 135.5625 " fill-opacity="1" fill-rule="nonzero"/><path fill="rgb(94.509888%, 28.239441%, 36.859131%)" d="M 176.601562 147.46875 C 177.15625 149.390625 178.363281 150.582031 179.675781 150.691406 C 180.457031 150.753906 180.457031 148.832031 179.675781 148.765625 C 178.761719 148.695312 178.023438 147.796875 177.648438 146.5 C 177.324219 145.375 176.277344 146.351562 176.601562 147.46875 " fill-opacity="1" fill-rule="nonzero"/><path fill="rgb(94.898987%, 67.059326%, 78.039551%)" d="M 168 150.1875 C 166.855469 153.480469 165.707031 156.773438 164.558594 160.066406 C 167.753906 162.679688 170.949219 165.289062 174.144531 167.894531 L 177.125 159.703125 L 168 150.1875 " fill-opacity="1" fill-rule="nonzero"/><path fill="rgb(94.509888%, 28.239441%, 36.859131%)" d="M 254.339844 227.90625 C 254.867188 234.359375 252.789062 240.214844 248.914062 242.523438 C 248.191406 242.957031 248.503906 244.8125 249.234375 244.378906 C 253.578125 241.789062 256.152344 235.253906 255.550781 227.90625 C 255.453125 226.695312 254.238281 226.679688 254.339844 227.90625 " fill-opacity="1" fill-rule="nonzero"/><path fill="rgb(6.269836%, 6.269836%, 12.159729%)" d="M 151.882812 175.828125 C 162.898438 198.476562 168.808594 226.632812 168.507812 255.230469 C 168.496094 256.382812 169.464844 256.449219 169.699219 255.488281 C 171.339844 248.761719 175.84375 244.582031 180.347656 245.640625 C 181.109375 245.820312 181.441406 243.964844 180.667969 243.785156 C 175.460938 242.5625 170.429688 247.183594 168.53125 254.976562 C 168.925781 255.0625 169.324219 255.144531 169.722656 255.230469 C 170.023438 226.332031 164.066406 197.75 152.929688 174.855469 C 152.460938 173.890625 151.40625 174.847656 151.882812 175.828125 " fill-opacity="1" fill-rule="nonzero"/><path fill="rgb(6.269836%, 6.269836%, 12.159729%)" d="M 185.390625 161.8125 C 182.390625 177.289062 171.152344 180.113281 162.375 180.398438 C 161.59375 180.425781 161.59375 182.34375 162.375 182.320312 C 171.742188 182.019531 183.386719 178.695312 186.5625 162.324219 C 186.789062 161.140625 185.621094 160.632812 185.390625 161.8125 " fill-opacity="1" fill-rule="nonzero"/><path fill="rgb(6.269836%, 6.269836%, 12.159729%)" d="M 168.917969 135.492188 C 171.082031 126.160156 177.121094 120.566406 183.316406 122.234375 C 185.605469 122.851562 186.589844 117.292969 184.285156 116.675781 C 176.015625 114.449219 168.304688 121.464844 165.414062 133.957031 C 164.605469 137.449219 168.121094 138.953125 168.917969 135.492188 " fill-opacity="1" fill-rule="nonzero"/><path fill="rgb(94.898987%, 67.059326%, 78.039551%)" d="M 584.96875 385.785156 C 581.265625 395.675781 583.328125 408.453125 589.5625 414.316406 C 595.800781 420.1875 603.859375 416.925781 607.5625 407.035156 C 611.261719 397.140625 609.203125 384.367188 602.96875 378.496094 C 596.722656 372.632812 588.667969 375.894531 584.96875 385.785156 " fill-opacity="1" fill-rule="nonzero"/><path fill="rgb(94.898987%, 67.059326%, 78.039551%)" d="M 605.59375 399.164062 C 603.746094 404.109375 604.773438 410.492188 607.894531 413.429688 C 611.011719 416.363281 615.042969 414.730469 616.890625 409.785156 C 618.742188 404.84375 617.714844 398.457031 614.59375 395.519531 C 611.476562 392.585938 607.445312 394.214844 605.59375 399.164062 " fill-opacity="1" fill-rule="nonzero"/><path fill="rgb(94.509888%, 28.239441%, 36.859131%)" d="M 615.511719 402.792969 C 612.546875 403.804688 609.585938 404.8125 606.617188 405.824219 C 605.863281 406.082031 605.453125 404.269531 606.210938 404.011719 C 609.179688 403 612.148438 401.992188 615.113281 400.980469 C 615.863281 400.722656 616.277344 402.535156 615.511719 402.792969 " fill-opacity="1" fill-rule="nonzero"/><path fill="rgb(94.509888%, 28.239441%, 36.859131%)" d="M 611.058594 403.558594 C 611.21875 406.015625 611.390625 408.464844 611.550781 410.914062 C 611.632812 412.148438 610.425781 412.296875 610.339844 411.066406 C 610.179688 408.617188 610.011719 406.160156 609.847656 403.710938 C 609.761719 402.476562 610.976562 402.332031 611.058594 403.558594 " fill-opacity="1" fill-rule="nonzero"/><path fill="rgb(6.269836%, 6.269836%, 12.159729%)" d="M 600.621094 392.921875 C 600.402344 394.359375 600.289062 395.789062 600.308594 397.273438 C 600.335938 399.738281 597.917969 400.050781 597.886719 397.570312 C 597.863281 395.753906 597.972656 393.960938 598.238281 392.191406 C 598.609375 389.796875 600.992188 390.511719 600.621094 392.921875 " fill-opacity="1" fill-rule="nonzero"/><path fill="rgb(6.269836%, 6.269836%, 12.159729%)" d="M 590.753906 390.421875 C 590.535156 391.859375 590.417969 393.289062 590.4375 394.769531 C 590.46875 397.238281 588.050781 397.542969 588.019531 395.070312 C 587.992188 393.257812 588.101562 391.453125 588.371094 389.6875 C 588.738281 387.289062 591.121094 388.007812 590.753906 390.421875 " fill-opacity="1" fill-rule="nonzero"/><path fill="rgb(94.509888%, 28.239441%, 36.859131%)" d="M 597.867188 404.210938 C 597.09375 405.925781 595.769531 406.738281 594.460938 406.445312 C 593.6875 406.273438 593.921875 404.386719 594.691406 404.558594 C 595.601562 404.761719 596.433594 404.105469 596.957031 402.941406 C 597.410156 401.933594 598.316406 403.207031 597.867188 404.210938 " fill-opacity="1" fill-rule="nonzero"/><path fill="rgb(94.898987%, 67.059326%, 78.039551%)" d="M 605.984375 409.46875 C 606.714844 413.050781 607.445312 416.625 608.175781 420.207031 C 604.726562 421.808594 601.28125 423.402344 597.828125 425.003906 L 595.882812 416.0625 L 605.984375 409.46875 " fill-opacity="1" fill-rule="nonzero"/><path fill="rgb(95.289612%, 79.219055%, 40.388489%)" d="M 606.84375 394.757812 C 605.839844 384.945312 600.578125 377.640625 594.296875 377.40625 C 591.972656 377.324219 591.675781 371.570312 594.015625 371.65625 C 602.398438 371.96875 609.128906 381.175781 610.472656 394.308594 C 610.84375 397.980469 607.214844 398.398438 606.84375 394.757812 " fill-opacity="1" fill-rule="nonzero"/><path fill="rgb(6.269836%, 6.269836%, 12.159729%)" d="M 203.265625 168.761719 C 212.042969 197.703125 220.820312 226.636719 229.597656 255.574219 C 229.9375 256.691406 230.980469 255.714844 230.644531 254.605469 C 221.867188 225.667969 213.089844 196.730469 204.3125 167.792969 C 203.972656 166.675781 202.925781 167.652344 203.265625 168.761719 " fill-opacity="1" fill-rule="nonzero"/><path fill="rgb(6.269836%, 6.269836%, 12.159729%)" d="M 251.917969 270.566406 C 244.472656 299.597656 237.027344 328.625 229.582031 357.648438 C 229.289062 358.796875 230.460938 359.292969 230.75 358.160156 C 238.195312 329.132812 245.640625 300.105469 253.085938 271.078125 C 253.382812 269.933594 252.210938 269.429688 251.917969 270.566406 " fill-opacity="1" fill-rule="nonzero"/><path fill="rgb(100%, 100%, 100%)" d="M 210.277344 357.964844 L 216.957031 385.148438 L 225.234375 357.964844 L 231.699219 385.148438 L 242.890625 357.964844 L 210.277344 357.964844 " fill-opacity="1" fill-rule="nonzero"/><g clip-path="url(#id3)"><path fill="rgb(95.289612%, 86.669922%, 89.019775%)" d="M 597.09375 472.441406 C 611.085938 466.390625 625.082031 460.34375 639.074219 454.292969 C 649.847656 486.703125 660.621094 519.113281 671.390625 551.519531 C 690.699219 575.65625 710.007812 599.785156 729.316406 623.921875 C 724.597656 636.964844 719.882812 650.015625 715.164062 663.058594 C 692.78125 637.359375 670.390625 611.65625 648.003906 585.953125 C 651.824219 620.082031 655.652344 654.207031 659.472656 688.332031 C 649.707031 689.816406 639.941406 691.304688 630.179688 692.789062 C 619.152344 619.339844 608.125 545.890625 597.09375 472.441406 " fill-opacity="1" fill-rule="nonzero"/></g><path fill="rgb(94.509888%, 28.239441%, 36.859131%)" d="M 584.792969 523.445312 L 690.8125 514 L 659.625 445.152344 C 651.292969 426.765625 637.539062 416.550781 623.296875 418.183594 L 564.296875 424.921875 L 534.820312 383.101562 L 508.449219 404.773438 L 549.796875 479.851562 C 557.433594 493.71875 567.628906 503.414062 578.933594 507.570312 L 584.792969 523.445312 " fill-opacity="1" fill-rule="nonzero"/><path fill="rgb(24.708557%, 39.99939%, 72.938538%)" d="M 627.886719 532.101562 C 628.785156 554.03125 635.589844 574.75 646.460938 588.410156 C 647.015625 589.109375 647.8125 587.867188 647.25 587.164062 C 636.609375 573.792969 629.882812 553.59375 628.996094 532.101562 C 628.949219 530.976562 627.835938 530.964844 627.886719 532.101562 " fill-opacity="1" fill-rule="nonzero"/><path fill="rgb(6.269836%, 6.269836%, 12.159729%)" d="M 641.234375 426.265625 C 632.125 449.722656 631.671875 480.324219 640.050781 504.449219 C 640.261719 504.015625 640.472656 503.585938 640.675781 503.152344 C 625.5625 496.988281 609.324219 500.121094 595.578125 511.835938 C 594.945312 512.375 595.503906 513.898438 596.136719 513.359375 C 609.621094 501.867188 625.554688 498.8125 640.382812 504.855469 C 640.859375 505.050781 641.246094 504.234375 641.011719 503.558594 C 632.8125 479.972656 633.292969 450.078125 642.195312 427.15625 C 642.578125 426.1875 641.613281 425.300781 641.234375 426.265625 " fill-opacity="1" fill-rule="nonzero"/><path fill="rgb(6.269836%, 6.269836%, 12.159729%)" d="M 589.125 422.683594 C 598.15625 430.035156 608.921875 430.292969 618.097656 423.414062 C 618.742188 422.933594 618.179688 421.410156 617.535156 421.894531 C 608.738281 428.488281 598.339844 428.199219 589.683594 421.164062 C 589.050781 420.644531 588.480469 422.160156 589.125 422.683594 " fill-opacity="1" fill-rule="nonzero"/><path fill="rgb(94.509888%, 28.239441%, 36.859131%)" d="M 593.445312 390.199219 C 593.066406 393.332031 592.683594 396.46875 592.308594 399.609375 C 592.167969 400.714844 593.242188 401.195312 593.378906 400.082031 C 593.761719 396.941406 594.144531 393.804688 594.519531 390.667969 C 594.65625 389.554688 593.585938 389.082031 593.445312 390.199219 " fill-opacity="1" fill-rule="nonzero"/><path fill="rgb(65.098572%, 64.709473%, 85.488892%)" d="M 443.992188 419.308594 L 522.757812 419.308594 C 524.375 419.308594 525.417969 417.210938 525.074219 414.640625 L 510.101562 303.003906 C 509.761719 300.433594 508.152344 298.335938 506.535156 298.335938 L 427.773438 298.335938 C 426.152344 298.335938 425.109375 300.433594 425.453125 303.003906 L 440.421875 414.640625 C 440.769531 417.210938 442.371094 419.308594 443.992188 419.308594 " fill-opacity="1" fill-rule="nonzero"/><path fill="rgb(94.898987%, 67.059326%, 78.039551%)" d="M 534.824219 383.101562 L 529.21875 368.3125 C 526.652344 361.535156 522.226562 357.058594 517.269531 356.222656 L 500.738281 353.429688 C 500.511719 354.386719 498.183594 364.664062 501.855469 372.855469 C 505.4375 380.847656 513.261719 383.582031 520.050781 377.859375 L 522.234375 393.445312 L 534.824219 383.101562 " fill-opacity="1" fill-rule="nonzero"/></svg>